<?xml version="1.0" encoding="UTF-8"?>
<!DOCTYPE svg PUBLIC "-//W3C//DTD SVG 1.1//EN" "http://www.w3.org/Graphics/SVG/1.1/DTD/svg11.dtd">
<!-- Creator: CorelDRAW -->
<svg xmlns="http://www.w3.org/2000/svg" xml:space="preserve" width="103.906mm" height="28.2223mm" version="1.1" style="shape-rendering:geometricPrecision; text-rendering:geometricPrecision; image-rendering:optimizeQuality; fill-rule:evenodd; clip-rule:evenodd"
viewBox="0 0 10390.64 2822.23"
 xmlns:xlink="http://www.w3.org/1999/xlink"
 xmlns:xodm="http://www.corel.com/coreldraw/odm/2003">
 <defs>
  <style type="text/css">
   <![CDATA[
    .fil2 {fill:black;fill-rule:nonzero}
    .fil0 {fill:#00357C;fill-rule:nonzero}
    .fil1 {fill:#00A9A4;fill-rule:nonzero}
   ]]>
  </style>
 </defs>
 <g id="Layer_x0020_1">
  <metadata id="CorelCorpID_0Corel-Layer"/>
  <g id="_1841189589440">
   <path class="fil0" d="M-0 816.83c0,-263.8 70.07,-467.35 209.86,-610.29 121.56,-124.36 276.06,-186.73 463.84,-186.73 251.53,0 435.12,83.38 551.43,250.14 64.11,93.53 98.79,187.43 103.35,281.67l-313.21 0c-47.75,-173.41 -136.78,-262.75 -327.56,-262.75 -112.81,0 -201.44,46.24 -266.61,139.08 -64.81,92.49 -97.4,223.87 -97.4,393.43 0,169.56 34.34,296.74 102.66,381.17 68.66,84.43 155.55,126.82 261,126.82 193.73,0 279.07,-107.9 325.81,-283.77l313.2 0c-26.97,164.65 -95.99,298.84 -207.4,402.18 -111.06,103.35 -253.63,154.85 -427.4,154.85 -461.83,0 -691.57,-331.17 -691.57,-785.8zm7040.02 -547.88c290.34,0 409.09,242.9 410.57,525.94 0.89,169.95 -34.01,305.96 -110.68,402.05 -73.92,92.49 -173.77,138.74 -299.89,138.74 -288.61,0 -412.86,-242.9 -413.37,-525.94 -0.32,-173.21 35.06,-306.42 112.43,-402.06 74.98,-92.49 175.17,-138.73 300.94,-138.73zm495.03 1158.21c152.4,-139.08 228.77,-347.18 228.77,-624.3l-0.06 -12.7c-2.1,-271.33 -78.45,-475.56 -228.71,-612.7 -231.8,-238.2 -763.1,-235 -991.8,0 -153.1,139.09 -229.83,347.18 -229.83,624.31l0.05 12.7c2.12,271.33 78.83,475.56 229.78,612.69 228.7,235.01 760,238.2 991.8,0zm358.74 -591.76l571.75 0 0 277.46 -571.75 0 0 -277.46zm1099.36 725.19l-313.21 0 0 -1513.45 313.21 0 0 1513.45zm1397.49 -1513.45l0 266.96 -454.04 0 0 1246.49 -317.4 0 0 -1246.49 -454.04 0 0 -266.96 1225.48 0zm-8395.12 941.69l386.77 0 -190.58 -595.56 -196.19 595.56zm21.37 -941.69l357.34 0 533.21 1513.45 -342.62 0 -99.49 -311.09 -555.64 0 -102.65 311.09 -329.32 0 539.17 -1513.45zm2089.77 0l453.33 0 0 1513.45 -292.18 0 0 -1023.69 2.09 -246.28 -287.96 1269.97 -309.01 0 -285.87 -1269.97 2.11 246.28 0 1023.69 -292.19 0 0 -1513.45 458.24 0 276.77 1190.1 274.67 -1190.1zm1054.5 260.64l0 336.34 367.51 0c65.51,0 118.76,-12.62 159.75,-37.84 40.99,-25.23 61.31,-69.72 61.31,-133.84 0,-71.11 -26.98,-118.06 -81.28,-140.82 -46.59,-15.77 -106.16,-23.84 -178.67,-23.84l-328.62 0zm0 586.48l0 405.69 366.1 0c151.03,0 251.9,-49.13 251.9,-216.87 0,-149.36 -111.25,-188.09 -246.64,-188.82l-371.36 0zm427.77 -847.12c184.63,2.8 315.29,56.4 392.02,161.16 90.76,125.21 95.91,337.93 -0.71,454.02 -26.26,31.53 -64.45,60.26 -115.6,86.19 159.57,58.49 234.03,186.22 234.03,355.24 0,212.57 -136.58,392.81 -345.09,436.18 -65.86,13.65 -136.98,20.66 -213.7,20.66l-681.41 0 0 -1513.45 730.46 0z"/>
   <path class="fil1" d="M7043.7 566.21c16.9,0 30.71,13.82 30.71,30.71l0 141.87c0,40.48 -61.42,40.48 -61.42,0l0 -141.87c0,-16.89 13.81,-30.71 30.71,-30.71zm-3.67 664.48c270.26,0 318.54,-279.7 303.36,-496.28l-204.73 0c0,121.48 -189.92,121.48 -189.92,0l-214.85 0c-15.44,217.51 35.79,496.28 306.14,496.28zm297.6 -551.07c-22.18,-155.38 -99.06,-291.79 -266.54,-305.57l0 139.29c37.87,10.47 67.57,43.31 67.57,83.58l0 82.7 198.97 0zm-321.33 -306.1c-172.39,10.56 -253.49,146.45 -276.57,306.1l209.01 0 0 -82.7c0,-40.27 29.7,-73.11 67.56,-83.57l0 -139.83z"/>
   <g>
    <path class="fil2" d="M652.08 2515.38c-46.45,0 -82.63,-11.5 -108.53,-34.5 -25.91,-23.01 -38.86,-55.28 -38.86,-96.82l0 -147.39c0,-10.27 -2.35,-17.98 -7.04,-23.12 -4.69,-5.13 -11.27,-9.49 -19.76,-13.06l0 -34.84c0,-19.21 4.8,-33.61 14.4,-43.21 9.61,-9.61 23.56,-14.41 41.88,-14.41l52.26 0 0 58.29 -34.84 0c-8.49,0 -12.73,4.69 -12.73,14.07l0 6.03c12.06,4.91 21.32,11.17 27.8,18.76 6.48,7.59 9.72,18.54 9.72,32.83l0 146.05c0,24.12 6.7,42.88 20.1,56.28 13.39,13.4 31.93,20.1 55.6,20.1 23.68,0 42.21,-6.7 55.61,-20.1 13.4,-13.4 20.1,-32.16 20.1,-56.28l0 -147.39c0,-10.27 -2.34,-17.98 -7.03,-23.12 -4.69,-5.13 -11.28,-9.49 -19.77,-13.06l0 -34.84c0,-19.21 4.8,-33.61 14.41,-43.21 9.6,-9.61 23.56,-14.41 41.87,-14.41l51.59 0 0 58.29 -34.17 0c-8.93,0 -13.4,4.69 -13.4,14.07l0 6.03c12.51,4.91 21.89,11.17 28.14,18.76 6.25,7.59 9.38,18.54 9.38,32.83l0 146.05c0,41.54 -12.84,73.81 -38.52,96.82 -25.69,23 -61.75,34.5 -108.21,34.5zm-111.21 -181.56l0 -50.92 221.76 0 0 50.92 -221.76 0zm385.24 -97.82c0,-9.38 -1.57,-16.97 -4.69,-22.78 -3.13,-5.81 -8.04,-10.94 -14.74,-15.41l0 -28.14c0,-20.55 5.47,-35.96 16.41,-46.23 10.95,-10.27 27.14,-15.41 48.58,-15.41l69.67 0 67 32.16 14.74 0c8.04,0 14.07,-1.9 18.09,-5.69 4.02,-3.8 6.03,-9.94 6.03,-18.43l0 -32.16 64.32 0 0 38.19c0,14.74 -2.12,27.36 -6.37,37.86 -4.24,10.49 -11.72,18.53 -22.44,24.11 -10.72,5.59 -25.24,8.38 -43.55,8.38l-47.57 0 -53.6 -26.13 -50.91 0c-4.47,0 -8.27,1.12 -11.39,3.35 -3.13,2.23 -4.69,6.25 -4.69,12.06l0 4.69c8.04,4.91 14.4,11.05 19.09,18.42 4.69,7.37 7.04,17.98 7.04,31.83l0 198.31 71.68 -69.68 71.02 69.68 0 -186.25 71.69 0 0 259.95 -67.67 0 -75.04 -76.38 -74.36 76.38 -68.34 0 0 -272.68zm58.29 450.22c-19.21,0 -32.94,-2.45 -41.21,-7.37 -8.26,-4.91 -12.39,-12.5 -12.39,-22.77l0 -49.58c0,-22.34 7.82,-39.09 23.45,-50.25 15.63,-11.17 40.2,-16.75 73.7,-16.75 34.39,0 59.74,4.8 76.04,14.4 16.3,9.61 24.45,24.46 24.45,44.56l0 15.41c0,8.93 3.02,15.74 9.05,20.43 6.03,4.69 13.96,7.04 23.78,7.04 12.06,0 21.33,-3.02 27.81,-9.05 6.47,-6.03 9.71,-14.18 9.71,-24.45l0 -61.64 63.65 0 0 61.64c0,10.27 3.57,18.42 10.72,24.45 7.15,6.03 16.53,9.05 28.14,9.05 10.27,0 19.09,-3.02 26.46,-9.05 7.37,-6.03 11.06,-14.18 11.06,-24.45l0 -371.17c0,-10.27 -2.35,-17.98 -7.04,-23.12 -4.69,-5.13 -11.27,-9.49 -19.76,-13.06l0 -34.84c0,-19.21 4.8,-33.61 14.4,-43.21 9.61,-9.61 23.56,-14.41 41.88,-14.41l52.26 0 0 58.29 -34.84 0c-8.49,0 -12.73,4.69 -12.73,14.07l0 6.03c12.06,4.91 21.32,11.17 27.8,18.76 6.48,7.59 9.72,18.54 9.72,32.83l0 371.84c0,25.01 -8.94,43.99 -26.8,56.95 -17.87,12.95 -42.21,19.42 -73.03,19.42 -22.78,0 -41.65,-4.13 -56.61,-12.39 -14.97,-8.26 -25.58,-20.21 -31.83,-35.84l16.75 0c-5.81,15.63 -16.19,27.58 -31.15,35.84 -14.97,8.26 -33.61,12.39 -55.95,12.39 -27.24,0 -48.12,-5.13 -62.64,-15.4 -14.52,-10.28 -21.77,-25.46 -21.77,-45.56l0 -18.76c0,-7.15 -3.24,-12.73 -9.72,-16.75 -6.47,-4.02 -15.97,-6.03 -28.47,-6.03 -12.96,0 -22.67,2.01 -29.15,6.03 -6.47,4.02 -9.71,9.6 -9.71,16.75l0 9.38 -4.69 -7.37 8.04 0c12.5,0 22,3.24 28.47,9.71 6.48,6.48 9.72,15.97 9.72,28.48 0,12.95 -3.91,22.78 -11.73,29.47 -7.81,6.7 -19.76,10.05 -35.84,10.05zm4.69 -22.77c5.36,0 9.49,-1.46 12.39,-4.36 2.91,-2.9 4.36,-7.03 4.36,-12.39 0,-5.36 -1.45,-9.38 -4.36,-12.06 -2.9,-2.68 -7.03,-4.02 -12.39,-4.02l0 32.83zm696.1 -148.07c-46.45,0 -82.63,-11.5 -108.53,-34.5 -25.91,-23.01 -38.86,-55.28 -38.86,-96.82l0 -147.39c0,-10.27 -2.35,-17.98 -7.04,-23.12 -4.69,-5.13 -11.27,-9.49 -19.76,-13.06l0 -34.84c0,-19.21 4.8,-33.61 14.4,-43.21 9.61,-9.61 23.56,-14.41 41.88,-14.41l52.26 0 0 58.29 -34.84 0c-8.49,0 -12.73,4.69 -12.73,14.07l0 6.03c12.06,4.91 21.32,11.17 27.8,18.76 6.48,7.59 9.72,18.54 9.72,32.83l0 146.05c0,24.12 6.7,42.88 20.1,56.28 13.39,13.4 31.93,20.1 55.6,20.1 23.68,0 42.21,-6.7 55.61,-20.1 13.4,-13.4 20.1,-32.16 20.1,-56.28l0 -147.39c0,-10.27 -2.34,-17.98 -7.03,-23.12 -4.69,-5.13 -11.28,-9.49 -19.77,-13.06l0 -34.84c0,-19.21 4.8,-33.61 14.41,-43.21 9.6,-9.61 23.56,-14.41 41.87,-14.41l51.59 0 0 58.29 -34.17 0c-8.93,0 -13.4,4.69 -13.4,14.07l0 6.03c12.51,4.91 21.89,11.17 28.14,18.76 6.25,7.59 9.38,18.54 9.38,32.83l0 146.05c0,41.54 -12.84,73.81 -38.52,96.82 -25.69,23 -61.75,34.5 -108.21,34.5zm-111.21 -181.56l0 -50.92 221.76 0 0 50.92 -221.76 0zm593.6 -109.21c0,-21.44 -6.03,-38.19 -18.09,-50.25 -12.06,-12.06 -28.81,-18.09 -50.25,-18.09 -21.44,0 -38.18,6.03 -50.24,18.09 -12.06,12.06 -18.09,28.81 -18.09,50.25l0 191.61 -18.09 -20.1 10.05 0c18.76,0 33.5,4.47 44.21,13.4 10.72,8.94 16.08,23.45 16.08,43.55 0,20.1 -5.36,35.06 -16.08,44.89 -10.71,9.83 -27.46,14.74 -50.24,14.74 -19.21,0 -33.61,-3.13 -43.22,-9.38 -9.6,-6.25 -14.4,-15.86 -14.4,-28.81l0 -249.9c0,-38.86 12.39,-69.12 37.18,-90.78 24.79,-21.67 59.07,-32.5 102.84,-32.5 44.22,0 78.5,10.83 102.85,32.5 24.34,21.66 36.51,51.92 36.51,90.78l0 212.38 63.65 -67.67 63.65 67.67 0 -212.38c0,-38.86 12.17,-69.12 36.51,-90.78 24.34,-21.67 58.62,-32.5 102.84,-32.5 43.77,0 78.05,10.83 102.84,32.5 24.79,21.66 37.19,51.92 37.19,90.78l0 284.07 -71.69 0 0 -284.07c0,-21.44 -6.03,-38.19 -18.09,-50.25 -12.06,-12.06 -28.81,-18.09 -50.25,-18.09 -21.44,0 -38.08,6.03 -49.91,18.09 -11.84,12.06 -17.76,28.81 -17.76,50.25l0 284.07 -68.33 0 -67 -71.69 -67 71.69 -67.67 0 0 -284.07zm-144.04 254.59c15.63,0 23.45,-8.49 23.45,-25.46 0,-16.97 -7.82,-25.46 -23.45,-25.46l0 50.92zm224.45 209.03c-19.66,0 -35.51,-1.78 -47.57,-5.36 -12.06,-3.57 -20.66,-8.93 -25.8,-16.07 -5.13,-7.15 -7.7,-16.08 -7.7,-26.8l0 -24.79 192.28 -15.41c6.7,-0.9 11.17,-2.24 13.4,-4.02 2.24,-1.79 3.35,-4.92 3.35,-9.38l-30.82 -10.05 -60.96 16.08 -60.3 -16.08 -54.27 13.4 0 -36.18 50.92 -14.07 63.65 22.11 63.64 -22.11 90.45 30.15 0 20.1c0,13.4 -5.69,22.67 -17.08,27.8 -11.39,5.14 -24.9,8.38 -40.54,9.72l-153.42 12.73 3.35 -2.68c0,7.59 2.34,12.73 7.03,15.41 4.69,2.68 12.17,4.02 22.45,4.02 11.16,0 22.55,-1.01 34.17,-3.02 11.61,-2.01 24.12,-3.91 37.52,-5.69 13.39,-1.79 27.91,-2.35 43.54,-1.68 15.64,0.67 33.28,3.46 52.93,8.38l-10.72 33.49c-17.86,-4.91 -33.83,-7.7 -47.9,-8.37 -14.07,-0.67 -27.47,-0.22 -40.2,1.34 -12.73,1.56 -25.57,3.13 -38.52,4.69 -12.96,1.56 -27.25,2.34 -42.88,2.34zm882.36 -172.85c-45.11,0 -80.07,-11.39 -104.85,-34.17 -24.79,-22.78 -37.19,-54.71 -37.19,-95.81l0 -154.76c0,-23.23 -6.36,-41.43 -19.09,-54.61 -12.73,-13.17 -30.49,-19.76 -53.27,-19.76 -22.78,0 -40.42,6.59 -52.92,19.76 -12.51,13.18 -18.76,31.38 -18.76,54.61l0 185.58 -18.09 -20.1 10.05 0c18.76,0 33.5,4.47 44.21,13.4 10.72,8.94 16.08,23.45 16.08,43.55 0,20.1 -5.36,35.06 -16.08,44.89 -10.71,9.83 -27.46,14.74 -50.24,14.74 -19.21,0 -33.61,-3.13 -43.22,-9.38 -9.6,-6.25 -14.4,-15.86 -14.4,-28.81l0 -243.87c0,-41.09 12.62,-72.92 37.85,-95.47 25.24,-22.56 60.41,-33.84 105.52,-33.84 46.01,0 81.52,11.28 106.53,33.84 25.01,22.55 37.52,54.38 37.52,95.47l0 154.76c0,23.68 6.14,42.1 18.42,55.28 12.29,13.17 29.59,19.76 51.93,19.76 22.33,0 39.75,-6.59 52.26,-19.76 12.5,-13.18 18.76,-31.6 18.76,-55.28l0 -148.73c0,-10.27 -2.35,-17.98 -7.04,-23.12 -4.69,-5.13 -11.28,-9.49 -19.76,-13.06l0 -34.84c0,-19.21 4.69,-33.61 14.07,-43.21 9.38,-9.61 23.44,-14.41 42.2,-14.41l51.59 0 0 58.29 -34.17 0c-8.93,0 -13.4,4.69 -13.4,14.07l0 6.03c12.51,4.91 21.89,11.17 28.14,18.76 6.26,7.59 9.38,18.54 9.38,32.83l0 147.39c0,41.1 -12.39,73.03 -37.18,95.81 -24.79,22.78 -59.74,34.17 -104.85,34.17zm-293.45 -36.18c15.63,0 23.45,-8.49 23.45,-25.46 0,-16.97 -7.82,-25.46 -23.45,-25.46l0 50.92zm710.17 36.18c-46.45,0 -82.63,-11.5 -108.53,-34.5 -25.91,-23.01 -38.86,-55.28 -38.86,-96.82l0 -147.39c0,-10.27 -2.35,-17.98 -7.04,-23.12 -4.69,-5.13 -11.27,-9.49 -19.76,-13.06l0 -34.84c0,-19.21 4.8,-33.61 14.4,-43.21 9.61,-9.61 23.56,-14.41 41.88,-14.41l52.26 0 0 58.29 -34.84 0c-8.49,0 -12.73,4.69 -12.73,14.07l0 6.03c12.06,4.91 21.32,11.17 27.8,18.76 6.48,7.59 9.72,18.54 9.72,32.83l0 146.05c0,24.12 6.7,42.88 20.1,56.28 13.39,13.4 31.93,20.1 55.6,20.1 23.68,0 42.21,-6.7 55.61,-20.1 13.4,-13.4 20.1,-32.16 20.1,-56.28l0 -147.39c0,-10.27 -2.34,-17.98 -7.03,-23.12 -4.69,-5.13 -11.28,-9.49 -19.77,-13.06l0 -34.84c0,-19.21 4.8,-33.61 14.41,-43.21 9.6,-9.61 23.56,-14.41 41.87,-14.41l51.59 0 0 58.29 -34.17 0c-8.93,0 -13.4,4.69 -13.4,14.07l0 6.03c12.51,4.91 21.89,11.17 28.14,18.76 6.25,7.59 9.38,18.54 9.38,32.83l0 146.05c0,41.54 -12.84,73.81 -38.52,96.82 -25.69,23 -61.75,34.5 -108.21,34.5zm332.32 -2.68c-19.21,0 -33.39,-3.13 -42.55,-9.38 -9.15,-6.25 -13.73,-15.86 -13.73,-28.81l0 -237.84c0,-10.27 -2.12,-18.09 -6.37,-23.45 -4.24,-5.36 -9.93,-10.05 -17.08,-14.07l0 -33.5c0,-19.21 4.69,-33.61 14.07,-43.21 9.38,-9.61 23.45,-14.41 42.21,-14.41l57.62 0 0 58.29 -40.2 0c-8.94,0 -13.4,4.69 -13.4,14.07l0 6.03c11.16,4.91 19.65,11.17 25.46,18.76 5.8,7.59 8.71,18.54 8.71,32.83l0 174.19 -19.43 -21.44 9.38 0c18.76,0 33.5,4.81 44.21,14.41 10.72,9.6 16.08,24.9 16.08,45.89 0,41.09 -21.66,61.64 -64.98,61.64zm6.03 -33.5c15.18,0 22.78,-9.16 22.78,-27.47 0,-18.31 -7.6,-27.47 -22.78,-27.47l0 54.94zm284.06 209.03c-41.53,0 -74.48,-10.05 -98.82,-30.14 -24.34,-20.1 -36.51,-47.57 -36.51,-82.41l0 -339.01c0,-10.27 -2.35,-17.98 -7.04,-23.12 -4.69,-5.13 -11.27,-9.49 -19.76,-13.06l0 -34.84c0,-19.21 4.8,-33.61 14.4,-43.21 9.61,-9.61 23.56,-14.41 41.88,-14.41l52.26 0 0 58.29 -34.84 0c-8.49,0 -12.73,4.69 -12.73,14.07l0 6.03c12.06,4.91 21.32,11.17 27.8,18.76 6.48,7.59 9.72,18.54 9.72,32.83l0 337.67c0,17.42 5.69,31.49 17.08,42.21 11.39,10.72 26.91,16.08 46.56,16.08 19.21,0 34.62,-5.36 46.23,-16.08 11.62,-10.72 17.42,-24.79 17.42,-42.21l0 -29.48 71.02 0 0 29.48c0,34.84 -12.06,62.31 -36.18,82.41 -24.12,20.09 -56.95,30.14 -98.49,30.14zm63.65 -179.55l0 -166.16 -30.82 0 0 -47.56 102.51 0 0 141.36 76.37 -69.68 76.38 69.68 0 -156.1c0,-12.51 -1.9,-22.89 -5.69,-31.16 -3.8,-8.26 -13.07,-15.52 -27.81,-21.77l49.58 -26.13c22.33,8.49 37.18,18.98 44.55,31.49 7.37,12.5 11.06,28.36 11.06,47.57l0 228.46 -67.67 0 -80.4 -75.71 -79.72 75.71 -68.34 0zm105.85 -247.89c-32.6,0 -58.84,-6.03 -78.72,-18.09 -19.87,-12.06 -29.81,-28.81 -29.81,-50.25 0,-11.17 1.78,-20.99 5.36,-29.48 3.57,-8.49 5.36,-16.3 5.36,-23.45 0,-4.47 -1.01,-7.48 -3.02,-9.04 -2.01,-1.57 -5.02,-2.35 -9.04,-2.35l-10.05 0 0 -44.22 39.53 0c17.42,0 30.03,3.35 37.85,10.05 7.82,6.7 11.73,16.53 11.73,29.48 0,10.27 -1.68,19.88 -5.03,28.81 -3.35,8.93 -5.02,17.87 -5.02,26.8 0,10.72 4.35,19.43 13.06,26.13 8.71,6.7 22.45,10.05 41.2,10.05 16.08,0 29.82,-2.68 41.21,-8.04 11.39,-5.36 22.44,-12.95 33.16,-22.78l6.7 28.81c-13.84,-0.89 -25.68,-6.25 -35.51,-16.08 -9.82,-9.83 -14.74,-22.11 -14.74,-36.85 0,-17.42 5.92,-31.15 17.76,-41.2 11.83,-10.05 27.58,-15.08 47.23,-15.08 20.1,0 35.96,5.03 47.57,15.08 11.61,10.05 17.42,23.78 17.42,41.2 0,11.17 -2.79,20.88 -8.38,29.14 -5.58,8.27 -12.72,14.97 -21.43,20.1 -8.71,5.14 -17.76,8.6 -27.14,10.39 -4.91,5.36 -12.73,11.16 -23.45,17.42 -10.72,6.25 -23.89,11.72 -39.53,16.41 -15.63,4.69 -33.72,7.04 -54.27,7.04zm109.21 -79.73c5.81,0 10.5,-1.9 14.07,-5.7 3.57,-3.79 5.36,-8.37 5.36,-13.73 0,-5.81 -1.79,-10.61 -5.36,-14.4 -3.57,-3.8 -8.26,-5.7 -14.07,-5.7 -5.36,0 -9.82,1.9 -13.4,5.7 -3.57,3.79 -5.36,8.59 -5.36,14.4 0,5.36 1.79,9.94 5.36,13.73 3.58,3.8 8.04,5.7 13.4,5.7zm131.32 507.17c-41.54,0 -74.48,-9.82 -98.82,-29.47 -24.34,-19.66 -36.52,-46.46 -36.52,-80.4l0 -32.16 71.69 0 0 32.16c0,16.97 5.7,30.48 17.09,40.53 11.39,10.05 26.91,15.08 46.56,15.08 19.65,0 35.17,-5.03 46.56,-15.08 11.39,-10.05 17.09,-23.56 17.09,-40.53l0 -468.32c0,-19.2 -5.03,-33.83 -15.08,-43.88 -10.05,-10.05 -24.67,-15.08 -43.88,-15.08l-123.28 0 0 -77.71c0,-8.04 -4.02,-12.06 -12.06,-12.06l-18.76 0 0 -46.23 52.26 0c15.19,0 26.13,3.35 32.83,10.05 6.7,6.7 10.05,17.42 10.05,32.16l0 42.21 72.36 0c38.86,0 68.11,8.82 87.77,26.46 19.65,17.64 29.48,44.33 29.48,80.06l0 472.34c0,33.94 -12.06,60.74 -36.18,80.4 -24.12,19.65 -57.17,29.47 -99.16,29.47zm432.13 -172.85c-23.22,0 -42.99,-3.91 -59.29,-11.72 -16.3,-7.82 -29.81,-18.43 -40.53,-31.83 -10.72,-13.4 -19.21,-28.36 -25.46,-44.89l16.75 -35.51c3.12,9.83 8.59,20.33 16.41,31.49 7.82,11.17 17.87,20.44 30.15,27.81 12.28,7.37 26.69,11.05 43.21,11.05 18.76,0 33.17,-4.35 43.22,-13.06 10.05,-8.71 15.07,-21.11 15.07,-37.19l0 -40.2c-29.48,-4.02 -57.5,-9.38 -84.08,-16.08 -26.58,-6.7 -50.25,-15.63 -71.02,-26.79 -20.77,-11.17 -37.07,-25.46 -48.91,-42.88 -11.83,-17.42 -17.75,-39.09 -17.75,-64.99 0,-38.41 13.96,-67.89 41.87,-88.44 27.92,-20.54 64.88,-30.82 110.88,-30.82 45.12,0 80.4,9.05 105.86,27.14 25.46,18.09 38.19,42.76 38.19,74.03 0,24.12 -7.71,42.88 -23.11,56.28 -15.41,13.4 -35.63,20.1 -60.64,20.1 -8.93,0 -16.86,-0.78 -23.78,-2.35 -6.93,-1.56 -12.4,-3.01 -16.42,-4.35l0 -44.89c3.13,1.34 7.04,2.57 11.73,3.68 4.69,1.12 9.27,1.68 13.73,1.68 8.49,0 15.19,-2.57 20.1,-7.71 4.92,-5.13 7.37,-12.39 7.37,-21.77 0,-14.74 -6.47,-26.35 -19.43,-34.84 -12.95,-8.49 -30.82,-12.73 -53.6,-12.73 -24.56,0 -44.21,5.92 -58.95,17.76 -14.74,11.83 -22.11,28.69 -22.11,50.58 0,24.56 9.26,43.32 27.8,56.28 18.54,12.95 44.33,22.89 77.38,29.81 33.06,6.92 71.69,13.29 115.91,19.1l0 89.1c0,30.82 -9.83,54.72 -29.48,71.69 -19.65,16.97 -46.67,25.46 -81.07,25.46zm-174.19 -6.7l0 -134.67 68.34 0 0 68.34 -4.69 66.33 -63.65 0zm404 -170.17c0,-41.54 13.06,-73.81 39.19,-96.82 26.13,-23 62.42,-34.72 108.87,-35.17 46.9,0.45 83.3,12.17 109.21,35.17 25.91,23.01 38.86,55.28 38.86,96.82l0 170.17 -71.69 0 0 -170.17c0.45,-24.57 -6.14,-43.44 -19.76,-56.62 -13.63,-13.17 -32.5,-19.76 -56.62,-19.76 -23.67,0 -42.43,6.59 -56.27,19.76 -13.85,13.18 -20.55,32.05 -20.1,56.62l-0.67 170.17 -71.02 0 0 -170.17zm-2.68 -172.19l0 -58.29 301.49 0 0 58.29 -301.49 0zm231.81 515.21l0 -135.33 67 0 0 135.33 -67 0zm-81.06 -615.04c-23.23,0 -41.65,-6.36 -55.28,-19.09 -13.62,-12.73 -20.43,-29.37 -20.43,-49.91 0,-21 6.81,-37.75 20.43,-50.25 13.63,-12.51 32.05,-18.76 55.28,-18.76 23.67,0 42.32,6.25 55.94,18.76 13.62,12.5 20.43,29.25 20.43,50.25 0,20.54 -6.81,37.18 -20.43,49.91 -13.62,12.73 -32.27,19.09 -55.94,19.09zm0 -39.53c8.48,0 15.07,-2.68 19.76,-8.04 4.69,-5.36 7.04,-12.5 7.04,-21.43 0,-8.94 -2.35,-16.08 -7.04,-21.44 -4.69,-5.36 -11.28,-8.04 -19.76,-8.04 -8.04,0 -14.52,2.68 -19.43,8.04 -4.92,5.36 -7.37,12.5 -7.37,21.44 0,8.93 2.45,16.07 7.37,21.43 4.91,5.36 11.39,8.04 19.43,8.04zm499.8 481.72l0 -310.2 -28.14 -28.14 -46.23 40.2 -4.02 0 -46.22 -40.2 -28.14 28.14 0 217.74 -18.09 -20.1 10.05 0c18.76,0 33.5,4.47 44.21,13.4 10.72,8.94 16.08,23.45 16.08,43.55 0,20.1 -5.36,35.06 -16.08,44.89 -10.71,9.83 -27.46,14.74 -50.24,14.74 -19.21,0 -33.61,-3.13 -43.22,-9.38 -9.6,-6.25 -14.4,-15.86 -14.4,-28.81l0 -292.78 83.75 -80.4 4.69 0 59.62 50.25 59.63 -50.25 4.69 0 83.75 80.4 0 326.95 -71.69 0zm-160.12 -29.48c15.63,0 23.45,-8.49 23.45,-25.46 0,-16.97 -7.82,-25.46 -23.45,-25.46l0 50.92zm295.46 209.03c-41.54,0 -74.48,-9.82 -98.82,-29.47 -24.34,-19.66 -36.52,-46.46 -36.52,-80.4l0 -32.16 71.69 0 0 32.16c0,16.97 5.7,30.48 17.09,40.53 11.39,10.05 26.91,15.08 46.56,15.08 19.65,0 35.17,-5.03 46.56,-15.08 11.39,-10.05 17.09,-23.56 17.09,-40.53l0 -341.69c0,-10.27 -2.35,-17.98 -7.04,-23.12 -4.69,-5.13 -11.27,-9.49 -19.76,-13.06l0 -34.84c0,-19.21 4.8,-33.61 14.4,-43.21 9.61,-9.61 23.56,-14.41 41.88,-14.41l52.26 0 0 58.29 -34.84 0c-8.49,0 -12.73,4.69 -12.73,14.07l0 6.03c12.06,4.91 21.32,11.17 27.8,18.76 6.48,7.59 9.72,18.54 9.72,32.83l0 340.35c0,33.94 -12.06,60.74 -36.18,80.4 -24.12,19.65 -57.17,29.47 -99.16,29.47zm38.18 134c-27.69,0 -48.79,-5.36 -63.31,-16.08 -14.51,-10.72 -21.77,-25.68 -21.77,-44.89l0 -46.23 55.61 0 0 42.88c0,8.04 2.79,14.3 8.37,18.76 5.58,4.47 12.17,6.7 19.76,6.7 8.94,0 15.97,-2.23 21.11,-6.7 5.14,-4.46 7.7,-10.72 7.7,-18.76l0 -42.88 62.98 0 0 46.23c0,19.21 -7.7,34.17 -23.11,44.89 -15.41,10.72 -37.86,16.08 -67.34,16.08zm398.64 -451.57c-25.46,-0.89 -50.02,-4.24 -73.69,-10.05 -23.68,-5.8 -44.78,-14.29 -63.32,-25.45 -18.53,-11.17 -33.16,-25.58 -43.88,-43.22 -10.72,-17.64 -16.08,-39.42 -16.08,-65.32 0,-39.75 13.51,-70.57 40.53,-92.46 27.03,-21.88 63.32,-32.83 108.87,-32.83 30.38,0 56.28,4.69 77.72,14.07 21.44,9.38 37.86,22.11 49.25,38.19 11.39,16.08 17.08,34.17 17.08,54.27 0,8.04 -0.89,15.41 -2.68,22.11 -1.79,6.7 -4.02,12.28 -6.7,16.75l-71.69 0c2.24,-5.36 4.36,-11.39 6.37,-18.09 2.01,-6.7 3.01,-12.95 3.01,-18.76 0,-15.63 -6.36,-28.48 -19.09,-38.52 -12.73,-10.05 -29.82,-15.08 -51.26,-15.08 -23.67,0 -42.54,6.14 -56.61,18.42 -14.07,12.29 -21.1,30.71 -21.1,55.28 0,31.26 11.72,53.82 35.17,67.67 23.45,13.84 56.17,22.55 98.15,26.13l-10.05 46.89zm-52.93 144.72c-35.73,0 -63.76,-8.71 -84.08,-26.13 -20.32,-17.42 -30.48,-41.98 -30.48,-73.7l0 -30.15 69.68 0 0 30.15c0,14.74 3.9,26.24 11.72,34.51 7.82,8.26 18.65,12.39 32.49,12.39 14.3,0 25.13,-4.13 32.5,-12.39 7.37,-8.27 11.05,-19.77 11.05,-34.51l0 -95.13c0,-12.96 4.58,-22.9 13.74,-29.82 9.15,-6.92 22.44,-10.38 39.86,-10.38 20.99,0 36.4,4.91 46.23,14.74 9.83,9.82 14.74,23 14.74,39.53 0,17.41 -5.14,30.37 -15.41,38.85 -10.27,8.49 -23,12.73 -38.19,12.73l-7.37 0 16.08 -19.43 0 49.58c0,31.27 -9.71,55.61 -29.14,73.03 -19.43,17.42 -47.24,26.13 -83.42,26.13zm102.51 -161.47c12.95,0 19.43,-6.7 19.43,-20.09 0,-12.96 -6.48,-19.43 -19.43,-19.43l0 39.52zm-65.65 -292.11c-31.27,0 -55.39,-6.03 -72.36,-18.09 -16.97,-12.06 -25.46,-29.7 -25.46,-52.92 0,-21 6.92,-37.19 20.77,-48.58 13.85,-11.39 31.93,-17.08 54.27,-17.08 8.48,0 15.74,0.67 21.77,2.01 6.03,1.34 10.61,2.45 13.74,3.35l0 38.19c-3.13,-0.9 -6.59,-1.9 -10.39,-3.02 -3.8,-1.12 -7.48,-1.67 -11.05,-1.67 -8.04,0 -14.41,2.23 -19.1,6.7 -4.69,4.46 -7.03,10.49 -7.03,18.09 0,9.82 3.46,17.3 10.38,22.44 6.93,5.14 16.86,7.7 29.82,7.7 22.33,0 40.08,-8.71 53.26,-26.12 13.18,-17.42 21.77,-41.99 25.79,-73.7l64.99 0c-8.48,47.34 -24.68,82.96 -48.57,106.86 -23.9,23.9 -57.51,35.84 -100.83,35.84zm267.99 450.9c-21.89,0 -38.19,-4.91 -48.91,-14.74 -10.72,-9.83 -16.08,-24.57 -16.08,-44.22 0,-19.65 5.14,-34.17 15.41,-43.55 10.27,-9.38 24.56,-14.07 42.88,-14.07l8.71 0 -16.75 20.1 0 -175.53c0,-10.72 -3.35,-18.98 -10.05,-24.79 -6.7,-5.81 -16.08,-10.72 -28.14,-14.74l0 -35.51c0,-19.21 4.69,-33.61 14.07,-43.21 9.38,-9.61 23.45,-14.41 42.21,-14.41l58.29 0 0 58.29 -40.87 0c-8.94,0 -13.4,4.69 -13.4,14.07l0 6.03c16.52,4.47 28.81,11.17 36.85,20.1 8.04,8.93 12.06,20.77 12.06,35.51l0 232.48c0,25.46 -18.76,38.19 -56.28,38.19zm-4.69 -83.75c-15.19,0 -22.78,8.49 -22.78,25.46 0,16.53 7.59,24.79 22.78,24.79l0 -50.25zm247.89 83.75c-19.21,0 -33.39,-3.13 -42.55,-9.38 -9.15,-6.25 -13.73,-15.86 -13.73,-28.81l0 -237.84c0,-10.27 -2.12,-18.09 -6.37,-23.45 -4.24,-5.36 -9.93,-10.05 -17.08,-14.07l0 -33.5c0,-19.21 4.69,-33.61 14.07,-43.21 9.38,-9.61 23.45,-14.41 42.21,-14.41l57.62 0 0 58.29 -40.2 0c-8.94,0 -13.4,4.69 -13.4,14.07l0 6.03c11.16,4.91 19.65,11.17 25.46,18.76 5.8,7.59 8.71,18.54 8.71,32.83l0 174.19 -19.43 -21.44 9.38 0c18.76,0 33.5,4.81 44.21,14.41 10.72,9.6 16.08,24.9 16.08,45.89 0,41.09 -21.66,61.64 -64.98,61.64zm6.03 -33.5c15.18,0 22.78,-9.16 22.78,-27.47 0,-18.31 -7.6,-27.47 -22.78,-27.47l0 54.94zm283.39 36.18c-45.55,0 -80.62,-10.05 -105.18,-30.15 -24.57,-20.1 -36.85,-47.34 -36.85,-81.74l0 -74.36c33.05,-4.02 63.09,-8.27 90.11,-12.73 27.02,-4.47 50.25,-10.28 69.68,-17.42 19.43,-7.15 34.5,-16.75 45.22,-28.81 10.72,-12.06 16.08,-27.47 16.08,-46.23 0,-21.89 -7.14,-38.75 -21.44,-50.58 -14.29,-11.84 -34.17,-17.76 -59.63,-17.76 -21.44,0 -38.97,4.47 -52.59,13.4 -13.62,8.93 -20.43,21.44 -20.43,37.52 0,9.38 2.45,16.86 7.37,22.44 4.91,5.59 11.61,8.38 20.1,8.38 4.46,0 9.04,-0.56 13.73,-1.68 4.69,-1.11 8.6,-2.34 11.72,-3.68l0 44.89c-4.02,1.34 -9.37,2.79 -16.07,4.35 -6.7,1.57 -14.74,2.35 -24.12,2.35 -25.02,0 -45.23,-6.93 -60.64,-20.77 -15.41,-13.85 -23.11,-33.28 -23.11,-58.29 0,-32.16 13.06,-57.4 39.19,-75.71 26.13,-18.31 61.31,-27.47 105.52,-27.47 45.56,0 82.3,9.83 110.22,29.48 27.91,19.65 41.87,48.91 41.87,87.77 0,27.24 -6.48,49.91 -19.43,68 -12.95,18.09 -30.37,32.72 -52.26,43.89 -21.88,11.16 -45.89,19.87 -72.02,26.12 -26.13,6.26 -52.15,10.95 -78.05,14.07l0 32.16c0,18.32 6.47,32.61 19.43,42.88 12.95,10.27 30.37,15.41 52.25,15.41 21.44,0 38.64,-4.69 51.59,-14.07 12.96,-9.38 19.43,-22.11 19.43,-38.19 0,-11.61 -3.79,-23 -11.39,-34.17l64.99 -20.77c4.91,8.49 8.82,17.65 11.72,27.47 2.91,9.83 4.36,20.55 4.36,32.16 0,30.82 -12.62,55.5 -37.85,74.04 -25.24,18.53 -59.74,27.8 -103.52,27.8z"/>
    <path class="fil2" d="M7656.05 2515.38c-46.45,0 -82.63,-11.5 -108.53,-34.5 -25.91,-23.01 -38.86,-55.28 -38.86,-96.82l0 -147.39c0,-10.27 -2.35,-17.98 -7.04,-23.12 -4.69,-5.13 -11.27,-9.49 -19.76,-13.06l0 -34.84c0,-19.21 4.8,-33.61 14.4,-43.21 9.61,-9.61 23.56,-14.41 41.88,-14.41l52.26 0 0 58.29 -34.84 0c-8.49,0 -12.73,4.69 -12.73,14.07l0 6.03c12.06,4.91 21.32,11.17 27.8,18.76 6.48,7.59 9.72,18.54 9.72,32.83l0 146.05c0,24.12 6.7,42.88 20.1,56.28 13.39,13.4 31.93,20.1 55.6,20.1 23.68,0 42.21,-6.7 55.61,-20.1 13.4,-13.4 20.1,-32.16 20.1,-56.28l0 -147.39c0,-10.27 -2.34,-17.98 -7.03,-23.12 -4.69,-5.13 -11.28,-9.49 -19.77,-13.06l0 -34.84c0,-19.21 4.8,-33.61 14.41,-43.21 9.6,-9.61 23.56,-14.41 41.87,-14.41l51.59 0 0 58.29 -34.17 0c-8.93,0 -13.4,4.69 -13.4,14.07l0 6.03c12.51,4.91 21.89,11.17 28.14,18.76 6.25,7.59 9.38,18.54 9.38,32.83l0 146.05c0,41.54 -12.84,73.81 -38.52,96.82 -25.69,23 -61.75,34.5 -108.21,34.5zm-111.21 -181.56l0 -50.92 221.76 0 0 50.92 -221.76 0zm532.63 181.56c-46.45,0 -82.63,-11.5 -108.53,-34.5 -25.91,-23.01 -38.86,-55.28 -38.86,-96.82l0 -147.39c0,-10.27 -2.35,-17.98 -7.04,-23.12 -4.69,-5.13 -11.27,-9.49 -19.76,-13.06l0 -34.84c0,-19.21 4.8,-33.61 14.4,-43.21 9.61,-9.61 23.56,-14.41 41.88,-14.41l52.26 0 0 58.29 -34.84 0c-8.49,0 -12.73,4.69 -12.73,14.07l0 6.03c12.06,4.91 21.32,11.17 27.8,18.76 6.48,7.59 9.72,18.54 9.72,32.83l0 146.05c0,24.12 6.7,42.88 20.1,56.28 13.39,13.4 31.93,20.1 55.6,20.1 23.68,0 42.21,-6.7 55.61,-20.1 13.4,-13.4 20.1,-32.16 20.1,-56.28l0 -147.39c0,-10.27 -2.34,-17.98 -7.03,-23.12 -4.69,-5.13 -11.28,-9.49 -19.77,-13.06l0 -34.84c0,-19.21 4.8,-33.61 14.41,-43.21 9.6,-9.61 23.56,-14.41 41.87,-14.41l51.59 0 0 58.29 -34.17 0c-8.93,0 -13.4,4.69 -13.4,14.07l0 6.03c12.51,4.91 21.89,11.17 28.14,18.76 6.25,7.59 9.38,18.54 9.38,32.83l0 146.05c0,41.54 -12.84,73.81 -38.52,96.82 -25.69,23 -61.75,34.5 -108.21,34.5zm47.57 172.85c-29.03,0 -51.25,-6.47 -66.66,-19.42 -15.41,-12.96 -23.11,-30.82 -23.11,-53.6l0 -69.01 58.96 0 0 67.67c0,9.38 2.68,16.86 8.04,22.44 5.36,5.58 12.5,8.38 21.43,8.38 8.94,0 16.2,-2.8 21.78,-8.38 5.58,-5.58 8.37,-13.06 8.37,-22.44l0 -67.67 63.65 0 0 69.01c0,22.78 -7.93,40.64 -23.78,53.6 -15.86,12.95 -38.75,19.42 -68.68,19.42zm678.02 -469.65c0,-34.84 -16.07,-52.26 -48.23,-52.26l-101.17 0 0 -58.29 115.91 0c69.67,0 104.51,35.06 104.51,105.19l0 295.46 -71.02 0 0 -290.1zm-200.99 294.12c-20.55,0 -36.62,-4.91 -48.24,-14.74 -11.61,-9.83 -17.42,-24.57 -17.42,-44.22 0,-19.65 5.36,-34.17 16.08,-43.55 10.72,-9.38 25.46,-14.07 44.22,-14.07l8.71 0 -17.42 20.1 0 -175.53c0,-10.28 -2.79,-18.43 -8.37,-24.46 -5.59,-6.03 -14.18,-11.05 -25.8,-15.07l0 -35.51c0,-19.21 4.8,-33.61 14.41,-43.21 9.6,-9.61 23.78,-14.41 42.54,-14.41l54.27 0 0 58.29 -37.52 0c-8.93,0 -13.4,4.69 -13.4,14.07l0 6.03c15.63,4.47 27.13,11.17 34.5,20.1 7.37,8.93 11.06,20.77 11.06,35.51l0 232.48c0,12.06 -4.36,21.44 -13.07,28.14 -8.71,6.7 -23.56,10.05 -44.55,10.05zm-217.07 -83.75c-15.64,0 -23.45,8.49 -23.45,25.46 0,16.53 7.81,24.79 23.45,24.79l0 -50.25zm3.35 83.75c-20.1,0 -35.96,-4.91 -47.57,-14.74 -11.61,-9.83 -17.42,-24.57 -17.42,-44.22 0,-19.65 5.36,-34.17 16.08,-43.55 10.72,-9.38 25.23,-14.07 43.55,-14.07l8.71 0 -16.75 20.1 0 -175.53c0,-10.72 -3.02,-18.98 -9.05,-24.79 -6.03,-5.81 -14.4,-10.72 -25.12,-14.74l0 -35.51c0,-19.21 4.69,-33.61 14.07,-43.21 9.38,-9.61 23.45,-14.41 42.21,-14.41l54.27 0 0 58.29 -36.85 0c-8.94,0 -13.4,4.69 -13.4,14.07l0 6.03c15.18,4.47 26.46,11.17 33.83,20.1 7.37,8.93 11.06,20.77 11.06,35.51l0 232.48c0,12.51 -4.36,22 -13.07,28.48 -8.71,6.47 -23.56,9.71 -44.55,9.71zm210.37 -83.75c-15.63,0 -23.45,8.49 -23.45,25.46 0,16.53 7.82,24.79 23.45,24.79l0 -50.25zm-198.31 -93.79l0 -48.91 225.11 0 0 48.91 -225.11 0zm739.65 180.22c-42.87,0 -76.26,-10.94 -100.16,-32.83 -23.89,-21.89 -35.84,-52.7 -35.84,-92.46l0 -248.56c0,-7.59 1.78,-14.18 5.36,-19.76 3.57,-5.59 9.38,-9.94 17.42,-13.07 8.04,-3.12 19.2,-4.69 33.5,-4.69 43.77,0 65.65,19.65 65.65,58.96 0,20.1 -5.47,34.73 -16.41,43.88 -10.94,9.16 -25.57,13.74 -43.88,13.74l-5.36 0 15.41 -9.38 0 178.88c0,22.34 6.25,39.64 18.76,51.93 12.5,12.28 30.37,18.42 53.59,18.42 22.78,0 40.43,-6.25 52.93,-18.76 12.51,-12.5 18.76,-29.7 18.76,-51.59l0 -153.42c0,-10.27 -2.23,-17.98 -6.7,-23.12 -4.46,-5.13 -10.94,-9.49 -19.43,-13.06l0 -34.84c0,-19.21 4.69,-33.61 14.07,-43.21 9.38,-9.61 23.45,-14.41 42.21,-14.41l51.59 0 0 58.29 -34.17 0c-8.93,0 -13.4,4.69 -13.4,14.07l0 6.03c12.06,4.91 21.33,11.17 27.8,18.76 6.48,7.59 9.72,18.54 9.72,32.83l0 152.08c0,21.89 6.25,39.09 18.76,51.59 12.51,12.51 29.7,18.76 51.59,18.76 22.33,0 39.75,-6.14 52.26,-18.42 12.5,-12.29 18.76,-29.59 18.76,-51.93l0 -153.42c0,-10.27 -2.35,-17.98 -7.04,-23.12 -4.69,-5.13 -11.28,-9.49 -19.76,-13.06l0 -34.84c0,-19.21 4.69,-33.61 14.07,-43.21 9.38,-9.61 23.44,-14.41 42.2,-14.41l51.59 0 0 58.29 -34.17 0c-8.93,0 -13.4,4.69 -13.4,14.07l0 6.03c12.51,4.91 21.89,11.17 28.14,18.76 6.26,7.59 9.38,18.54 9.38,32.83l0 152.08c0,39.76 -11.72,70.57 -35.17,92.46 -23.45,21.89 -56.61,32.83 -99.49,32.83 -28.59,0 -52.93,-6.03 -73.03,-18.09 -20.1,-12.06 -35.73,-29.93 -46.9,-53.6l12.73 0c-11.17,23.67 -26.91,41.54 -47.23,53.6 -20.33,12.06 -45.23,18.09 -74.71,18.09zm-74.36 -326.95c15.63,0 23.45,-8.71 23.45,-26.13 0,-16.97 -7.82,-25.46 -23.45,-25.46l0 51.59zm565.46 47.57c0,-9.83 -1.68,-17.53 -5.03,-23.12 -3.35,-5.58 -7.92,-10.6 -13.73,-15.07l0 -28.14c0,-20.55 5.47,-35.96 16.41,-46.23 10.95,-10.27 26.91,-15.41 47.91,-15.41l253.25 0 0 58.29 -237.84 0c-4.02,0 -7.6,1.12 -10.72,3.35 -3.13,2.23 -4.69,6.25 -4.69,12.06l0 4.69c7.59,4.91 13.84,11.05 18.76,18.42 4.91,7.37 7.37,17.98 7.37,31.83l0 199.65 76.37 -69.68 76.38 69.68 0 -126.62 18.09 20.1 -10.05 0c-18.31,0 -32.94,-4.47 -43.88,-13.4 -10.95,-8.94 -16.42,-23.45 -16.42,-43.55 0,-20.1 5.47,-35.07 16.42,-44.89 10.94,-9.83 27.58,-14.74 49.91,-14.74 19.65,0 34.17,3.01 43.55,9.04 9.38,6.03 14.07,15.75 14.07,29.15l0 257.27 -67.67 0 -80.4 -76.38 -79.72 76.38 -68.34 0 0 -272.68zm231.81 10.72c-15.19,0 -22.78,8.48 -22.78,25.46 0,16.97 7.59,25.46 22.78,25.46l0 -50.92zm-128.63 -186.93c-25.91,0 -45.67,-5.36 -59.3,-16.08 -13.62,-10.72 -20.43,-25.9 -20.43,-45.55 0,-22.34 8.26,-40.32 24.79,-53.94 16.53,-13.62 40.42,-20.43 71.69,-20.43 20.54,0 38.52,2.79 53.93,8.37 15.41,5.59 28.47,12.73 39.19,21.44 10.72,8.71 19.21,17.53 25.46,26.47l2.68 0 0 -64.99 54.94 0 0 144.71 -192.95 0zm11.39 -37.52l116.57 0c-6.25,-10.27 -14.96,-19.09 -26.13,-26.46 -11.16,-7.37 -23.56,-13.18 -37.18,-17.42 -13.62,-4.24 -26.69,-6.36 -39.19,-6.36 -14.3,0 -24.9,2.45 -31.83,7.37 -6.92,4.91 -10.38,11.61 -10.38,20.1 0,6.7 2.34,12.17 7.03,16.41 4.69,4.24 11.73,6.36 21.11,6.36z"/>
   </g>
  </g>
 </g>
</svg>
