<?xml version="1.0" encoding="UTF-8"?>
<!DOCTYPE svg PUBLIC "-//W3C//DTD SVG 1.1//EN" "http://www.w3.org/Graphics/SVG/1.1/DTD/svg11.dtd">
<!-- Creator: CorelDRAW -->
<svg xmlns="http://www.w3.org/2000/svg" xml:space="preserve" width="107.434mm" height="31.7501mm" version="1.1" style="shape-rendering:geometricPrecision; text-rendering:geometricPrecision; image-rendering:optimizeQuality; fill-rule:evenodd; clip-rule:evenodd"
viewBox="0 0 10692.09 3159.84"
 xmlns:xlink="http://www.w3.org/1999/xlink"
 xmlns:xodm="http://www.corel.com/coreldraw/odm/2003">
 <defs>
  <style type="text/css">
   <![CDATA[
    .fil0 {fill:white}
    .fil3 {fill:black;fill-rule:nonzero}
    .fil1 {fill:#00357C;fill-rule:nonzero}
    .fil2 {fill:#00A9A4;fill-rule:nonzero}
   ]]>
  </style>
 </defs>
 <g id="Layer_x0020_1">
  <metadata id="CorelCorpID_0Corel-Layer"/>
  <g id="_1841349396320">
   <rect class="fil0" y="-0" width="10692.09" height="3159.84"/>
   <g>
    <path class="fil1" d="M175.55 988.48c0,-262.54 69.74,-465.12 208.86,-607.37 120.98,-123.77 274.74,-185.84 461.62,-185.84 250.33,0 433.04,82.98 548.8,248.94 63.8,93.08 98.32,186.53 102.86,280.32l-311.71 0c-47.52,-172.58 -136.13,-261.49 -325.99,-261.49 -112.27,0 -200.48,46.02 -265.34,138.42 -64.5,92.05 -96.93,222.8 -96.93,391.55 0,168.75 34.18,295.32 102.17,379.35 68.33,84.03 154.81,126.21 259.75,126.21 192.8,0 277.74,-107.38 324.25,-282.41l311.7 0c-26.84,163.86 -95.53,297.41 -206.41,400.26 -110.53,102.86 -252.42,154.11 -425.36,154.11 -459.62,0 -688.27,-329.59 -688.27,-782.05zm7006.38 -545.26c288.95,0 407.14,241.74 408.61,523.43 0.89,169.14 -33.85,304.5 -110.15,400.13 -73.57,92.05 -172.94,138.08 -298.46,138.08 -287.23,0 -410.89,-241.74 -411.39,-523.43 -0.32,-172.38 34.89,-304.96 111.89,-400.14 74.62,-92.05 174.33,-138.07 299.5,-138.07zm492.66 1152.68c151.67,-138.42 227.68,-345.52 227.68,-621.32l-0.06 -12.64c-2.09,-270.03 -78.08,-473.29 -227.62,-609.77 -230.69,-237.06 -759.45,-233.88 -987.06,0 -152.37,138.43 -228.73,345.52 -228.73,621.33l0.05 12.64c2.11,270.03 78.45,473.29 228.68,609.76 227.61,233.89 756.37,237.06 987.06,0zm357.03 -588.93l569.02 0 0 276.13 -569.02 0 0 -276.13zm1094.11 721.72l-311.71 0 0 -1506.22 311.71 0 0 1506.22zm1390.81 -1506.22l0 265.68 -451.87 0 0 1240.53 -315.88 0 0 -1240.53 -451.87 0 0 -265.68 1219.62 0zm-8355.01 937.19l384.92 0 -189.67 -592.71 -195.25 592.71zm21.27 -937.19l355.63 0 530.66 1506.22 -340.98 0 -99.01 -309.6 -552.99 0 -102.16 309.6 -327.75 0 536.59 -1506.22zm2079.78 0l451.16 0 0 1506.22 -290.78 0 0 -1018.8 2.08 -245.1 -286.58 1263.9 -307.53 0 -284.5 -1263.9 2.1 245.1 0 1018.8 -290.79 0 0 -1506.22 456.05 0 275.45 1184.41 273.36 -1184.41zm1049.46 259.39l0 334.73 365.75 0c65.2,0 118.19,-12.56 158.99,-37.66 40.79,-25.11 61.02,-69.39 61.02,-133.2 0,-70.77 -26.85,-117.5 -80.89,-140.15 -46.37,-15.69 -105.65,-23.73 -177.82,-23.73l-327.05 0zm0 583.68l0 403.75 364.35 0c150.31,0 250.7,-48.9 250.7,-215.83 0,-148.65 -110.72,-187.19 -245.46,-187.92l-369.59 0zm425.73 -843.07c183.75,2.79 313.78,56.13 390.15,160.39 90.33,124.61 95.45,336.32 -0.71,451.85 -26.13,31.38 -64.14,59.97 -115.05,85.78 158.81,58.21 232.91,185.33 232.91,353.54 0,211.55 -135.93,390.93 -343.44,434.1 -65.55,13.58 -136.33,20.56 -212.68,20.56l-678.15 0 0 -1506.22 726.97 0z"/>
    <path class="fil2" d="M7185.59 739.06c16.82,0 30.56,13.75 30.56,30.56l0 141.19c0,40.29 -61.13,40.29 -61.13,0l0 -141.19c0,-16.81 13.74,-30.56 30.56,-30.56zm-3.65 661.31c268.97,0 317.02,-278.36 301.91,-493.91l-203.75 0c0,120.9 -189.01,120.9 -189.01,0l-213.82 0c-15.37,216.47 35.62,493.91 304.68,493.91zm296.18 -548.44c-22.07,-154.64 -98.59,-290.4 -265.27,-304.11l0 138.62c37.69,10.42 67.25,43.1 67.25,83.18l0 82.3 198.02 0zm-319.79 -304.64c-171.57,10.51 -252.28,145.75 -275.25,304.64l208.01 0 0 -82.3c0,-40.08 29.56,-72.76 67.24,-83.17l0 -139.16z"/>
    <g>
     <path class="fil3" d="M824.51 2678.92c-46.23,0 -82.24,-11.45 -108.01,-34.34 -25.79,-22.9 -38.67,-55.02 -38.67,-96.36l0 -146.69c0,-10.22 -2.34,-17.89 -7.01,-23.01 -4.67,-5.11 -11.22,-9.44 -19.67,-13l0 -34.67c0,-19.12 4.78,-33.45 14.33,-43 9.56,-9.56 23.45,-14.34 41.68,-14.34l52.01 0 0 58.01 -34.67 0c-8.45,0 -12.67,4.67 -12.67,14l0 6c12,4.89 21.22,11.12 27.67,18.67 6.45,7.55 9.67,18.45 9.67,32.67l0 145.35c0,24 6.67,42.68 20,56.01 13.33,13.34 31.78,20 55.33,20 23.57,0 42.01,-6.67 55.34,-20 13.34,-13.34 20,-32.01 20,-56.01l0 -146.69c0,-10.22 -2.33,-17.89 -7,-23.01 -4.67,-5.11 -11.23,-9.44 -19.68,-13l0 -34.67c0,-19.12 4.78,-33.45 14.34,-43 9.55,-9.56 23.45,-14.34 41.67,-14.34l51.34 0 0 58.01 -34.01 0c-8.89,0 -13.34,4.67 -13.34,14l0 6c12.45,4.89 21.79,11.12 28.01,18.67 6.22,7.55 9.34,18.45 9.34,32.67l0 145.35c0,41.34 -12.78,73.46 -38.34,96.36 -25.57,22.89 -61.45,34.34 -107.69,34.34zm-110.68 -180.69l0 -50.68 220.7 0 0 50.68 -220.7 0zm383.4 -97.35c0,-9.34 -1.56,-16.89 -4.67,-22.67 -3.12,-5.78 -8,-10.89 -14.67,-15.34l0 -28.01c0,-20.45 5.44,-35.79 16.33,-46.01 10.9,-10.22 27.01,-15.34 48.35,-15.34l69.34 0 66.68 32.01 14.67 0c8,0 14,-1.89 18,-5.66 4,-3.78 6,-9.89 6,-18.34l0 -32.01 64.01 0 0 38.01c0,14.67 -2.11,27.23 -6.34,37.68 -4.22,10.44 -11.66,18.44 -22.33,23.99 -10.67,5.56 -25.12,8.34 -43.34,8.34l-47.34 0 -53.34 -26.01 -50.67 0c-4.45,0 -8.23,1.11 -11.34,3.33 -3.12,2.22 -4.67,6.22 -4.67,12l0 4.67c8,4.89 14.33,11 19,18.33 4.67,7.33 7.01,17.89 7.01,31.68l0 197.36 71.34 -69.35 70.68 69.35 0 -185.36 71.35 0 0 258.71 -67.35 0 -74.68 -76.02 -74 76.02 -68.01 0 0 -271.38zm58.01 448.07c-19.12,0 -32.78,-2.44 -41.01,-7.33 -8.22,-4.89 -12.33,-12.44 -12.33,-22.66l0 -49.34c0,-22.23 7.78,-38.9 23.34,-50.01 15.56,-11.12 40.01,-16.67 73.35,-16.67 34.23,0 59.45,4.78 75.68,14.33 16.22,9.56 24.33,24.34 24.33,44.35l0 15.34c0,8.89 3.01,15.66 9.01,20.33 6,4.67 13.89,7.01 23.67,7.01 12,0 21.23,-3.01 27.68,-9.01 6.44,-6 9.66,-14.11 9.66,-24.33l0 -61.35 63.35 0 0 61.35c0,10.22 3.55,18.33 10.67,24.33 7.12,6 16.45,9.01 28.01,9.01 10.22,0 19,-3.01 26.33,-9.01 7.33,-6 11.01,-14.11 11.01,-24.33l0 -369.4c0,-10.22 -2.34,-17.89 -7.01,-23.01 -4.67,-5.11 -11.22,-9.44 -19.67,-13l0 -34.67c0,-19.12 4.78,-33.45 14.33,-43 9.56,-9.56 23.45,-14.34 41.68,-14.34l52.01 0 0 58.01 -34.67 0c-8.45,0 -12.67,4.67 -12.67,14l0 6c12,4.89 21.22,11.12 27.67,18.67 6.45,7.55 9.67,18.45 9.67,32.67l0 370.06c0,24.89 -8.9,43.78 -26.67,56.68 -17.78,12.89 -42.01,19.33 -72.68,19.33 -22.67,0 -41.45,-4.11 -56.34,-12.33 -14.9,-8.22 -25.46,-20.11 -31.68,-35.67l16.67 0c-5.78,15.56 -16.11,27.45 -31,35.67 -14.9,8.22 -33.45,12.33 -55.68,12.33 -27.11,0 -47.89,-5.11 -62.34,-15.33 -14.45,-10.23 -21.67,-25.34 -21.67,-45.34l0 -18.67c0,-7.12 -3.22,-12.67 -9.67,-16.67 -6.44,-4 -15.89,-6 -28.33,-6 -12.9,0 -22.56,2 -29.01,6 -6.44,4 -9.66,9.55 -9.66,16.67l0 9.34 -4.67 -7.33 8 0c12.44,0 21.89,3.22 28.33,9.66 6.45,6.45 9.67,15.89 9.67,28.34 0,12.89 -3.89,22.67 -11.67,29.33 -7.77,6.67 -19.67,10 -35.67,10zm4.67 -22.66c5.33,0 9.44,-1.45 12.33,-4.34 2.9,-2.89 4.34,-7 4.34,-12.33 0,-5.33 -1.44,-9.34 -4.34,-12 -2.89,-2.67 -7,-4 -12.33,-4l0 32.67zm692.77 -147.36c-46.23,0 -82.24,-11.45 -108.01,-34.34 -25.79,-22.9 -38.67,-55.02 -38.67,-96.36l0 -146.69c0,-10.22 -2.34,-17.89 -7.01,-23.01 -4.67,-5.11 -11.22,-9.44 -19.67,-13l0 -34.67c0,-19.12 4.78,-33.45 14.33,-43 9.56,-9.56 23.45,-14.34 41.68,-14.34l52.01 0 0 58.01 -34.67 0c-8.45,0 -12.67,4.67 -12.67,14l0 6c12,4.89 21.22,11.12 27.67,18.67 6.45,7.55 9.67,18.45 9.67,32.67l0 145.35c0,24 6.67,42.68 20,56.01 13.33,13.34 31.78,20 55.33,20 23.57,0 42.01,-6.67 55.34,-20 13.34,-13.34 20,-32.01 20,-56.01l0 -146.69c0,-10.22 -2.33,-17.89 -7,-23.01 -4.67,-5.11 -11.23,-9.44 -19.68,-13l0 -34.67c0,-19.12 4.78,-33.45 14.34,-43 9.55,-9.56 23.45,-14.34 41.67,-14.34l51.34 0 0 58.01 -34.01 0c-8.89,0 -13.34,4.67 -13.34,14l0 6c12.45,4.89 21.79,11.12 28.01,18.67 6.22,7.55 9.34,18.45 9.34,32.67l0 145.35c0,41.34 -12.78,73.46 -38.34,96.36 -25.57,22.89 -61.45,34.34 -107.69,34.34zm-110.68 -180.69l0 -50.68 220.7 0 0 50.68 -220.7 0zm590.76 -108.69c0,-21.34 -6,-38.01 -18,-50.01 -12,-12 -28.67,-18 -50.01,-18 -21.34,0 -38,6 -50,18 -12,12 -18,28.67 -18,50.01l0 190.69 -18 -20 10 0c18.67,0 33.34,4.45 44,13.34 10.67,8.9 16,23.34 16,43.34 0,20 -5.33,34.89 -16,44.68 -10.66,9.78 -27.33,14.67 -50,14.67 -19.12,0 -33.45,-3.12 -43.01,-9.34 -9.55,-6.22 -14.33,-15.78 -14.33,-28.67l0 -248.71c0,-38.67 12.33,-68.79 37,-90.35 24.67,-21.57 58.79,-32.34 102.35,-32.34 44.01,0 78.12,10.78 102.36,32.34 24.22,21.56 36.34,51.67 36.34,90.35l0 211.37 63.35 -67.35 63.35 67.35 0 -211.37c0,-38.67 12.11,-68.79 36.34,-90.35 24.22,-21.57 58.34,-32.34 102.35,-32.34 43.56,0 77.68,10.78 102.35,32.34 24.67,21.56 37.01,51.67 37.01,90.35l0 282.71 -71.35 0 0 -282.71c0,-21.34 -6,-38.01 -18,-50.01 -12,-12 -28.67,-18 -50.01,-18 -21.34,0 -37.9,6 -49.67,18 -11.78,12 -17.68,28.67 -17.68,50.01l0 282.71 -68 0 -66.68 -71.35 -66.68 71.35 -67.35 0 0 -282.71zm-143.35 253.37c15.56,0 23.34,-8.45 23.34,-25.34 0,-16.89 -7.78,-25.34 -23.34,-25.34l0 50.68zm223.38 208.03c-19.57,0 -35.34,-1.77 -47.34,-5.33 -12,-3.55 -20.56,-8.89 -25.68,-15.99 -5.11,-7.12 -7.66,-16 -7.66,-26.67l0 -24.67 191.36 -15.34c6.67,-0.9 11.12,-2.23 13.34,-4 2.23,-1.78 3.33,-4.9 3.33,-9.34l-30.67 -10 -60.67 16 -60.01 -16 -54.01 13.34 0 -36.01 50.68 -14 63.35 22 63.34 -22 90.02 30.01 0 20c0,13.34 -5.66,22.56 -17,27.67 -11.34,5.12 -24.78,8.34 -40.35,9.67l-152.69 12.67 3.33 -2.67c0,7.55 2.33,12.67 7,15.34 4.67,2.67 12.11,4 22.34,4 11.11,0 22.44,-1.01 34.01,-3.01 11.55,-2 24,-3.89 37.34,-5.66 13.33,-1.78 27.78,-2.34 43.33,-1.67 15.57,0.67 33.12,3.44 52.68,8.34l-10.67 33.33c-17.77,-4.89 -33.67,-7.66 -47.67,-8.33 -14,-0.67 -27.34,-0.22 -40.01,1.33 -12.67,1.55 -25.45,3.12 -38.34,4.67 -12.9,1.55 -27.12,2.33 -42.68,2.33zm878.14 -172.02c-44.89,0 -79.69,-11.34 -104.35,-34.01 -24.67,-22.67 -37.01,-54.45 -37.01,-95.35l0 -154.02c0,-23.12 -6.33,-41.23 -19,-54.35 -12.67,-13.11 -30.34,-19.67 -53.02,-19.67 -22.67,0 -40.23,6.56 -52.67,19.67 -12.45,13.12 -18.67,31.23 -18.67,54.35l0 184.69 -18 -20 10 0c18.67,0 33.34,4.45 44,13.34 10.67,8.9 16,23.34 16,43.34 0,20 -5.33,34.89 -16,44.68 -10.66,9.78 -27.33,14.67 -50,14.67 -19.12,0 -33.45,-3.12 -43.01,-9.34 -9.55,-6.22 -14.33,-15.78 -14.33,-28.67l0 -242.7c0,-40.89 12.56,-72.57 37.67,-95.01 25.12,-22.45 60.12,-33.68 105.02,-33.68 45.79,0 81.13,11.23 106.02,33.68 24.89,22.44 37.34,54.12 37.34,95.01l0 154.02c0,23.57 6.11,41.9 18.33,55.02 12.23,13.11 29.45,19.67 51.68,19.67 22.22,0 39.56,-6.56 52.01,-19.67 12.44,-13.12 18.67,-31.45 18.67,-55.02l0 -148.02c0,-10.22 -2.34,-17.89 -7.01,-23.01 -4.67,-5.11 -11.23,-9.44 -19.67,-13l0 -34.67c0,-19.12 4.67,-33.45 14,-43 9.34,-9.56 23.33,-14.34 42,-14.34l51.34 0 0 58.01 -34.01 0c-8.89,0 -13.34,4.67 -13.34,14l0 6c12.45,4.89 21.79,11.12 28.01,18.67 6.23,7.55 9.34,18.45 9.34,32.67l0 146.69c0,40.9 -12.33,72.68 -37,95.35 -24.67,22.67 -59.45,34.01 -104.35,34.01zm-292.05 -36.01c15.56,0 23.34,-8.45 23.34,-25.34 0,-16.89 -7.78,-25.34 -23.34,-25.34l0 50.68zm706.78 36.01c-46.23,0 -82.24,-11.45 -108.01,-34.34 -25.79,-22.9 -38.67,-55.02 -38.67,-96.36l0 -146.69c0,-10.22 -2.34,-17.89 -7.01,-23.01 -4.67,-5.11 -11.22,-9.44 -19.67,-13l0 -34.67c0,-19.12 4.78,-33.45 14.33,-43 9.56,-9.56 23.45,-14.34 41.68,-14.34l52.01 0 0 58.01 -34.67 0c-8.45,0 -12.67,4.67 -12.67,14l0 6c12,4.89 21.22,11.12 27.67,18.67 6.45,7.55 9.67,18.45 9.67,32.67l0 145.35c0,24 6.67,42.68 20,56.01 13.33,13.34 31.78,20 55.33,20 23.57,0 42.01,-6.67 55.34,-20 13.34,-13.34 20,-32.01 20,-56.01l0 -146.69c0,-10.22 -2.33,-17.89 -7,-23.01 -4.67,-5.11 -11.23,-9.44 -19.68,-13l0 -34.67c0,-19.12 4.78,-33.45 14.34,-43 9.55,-9.56 23.45,-14.34 41.67,-14.34l51.34 0 0 58.01 -34.01 0c-8.89,0 -13.34,4.67 -13.34,14l0 6c12.45,4.89 21.79,11.12 28.01,18.67 6.22,7.55 9.34,18.45 9.34,32.67l0 145.35c0,41.34 -12.78,73.46 -38.34,96.36 -25.57,22.89 -61.45,34.34 -107.69,34.34zm330.73 -2.67c-19.12,0 -33.23,-3.12 -42.35,-9.34 -9.11,-6.22 -13.66,-15.78 -13.66,-28.67l0 -236.7c0,-10.22 -2.11,-18 -6.34,-23.34 -4.22,-5.33 -9.88,-10 -17,-14l0 -33.34c0,-19.12 4.67,-33.45 14,-43 9.34,-9.56 23.34,-14.34 42.01,-14.34l57.34 0 0 58.01 -40.01 0c-8.9,0 -13.34,4.67 -13.34,14l0 6c11.11,4.89 19.56,11.12 25.34,18.67 5.77,7.55 8.67,18.45 8.67,32.67l0 173.36 -19.34 -21.34 9.34 0c18.67,0 33.34,4.79 44,14.34 10.67,9.55 16,24.78 16,45.67 0,40.89 -21.56,61.35 -64.67,61.35zm6 -33.34c15.11,0 22.67,-9.12 22.67,-27.34 0,-18.22 -7.56,-27.34 -22.67,-27.34l0 54.68zm282.7 208.03c-41.33,0 -74.12,-10 -98.35,-30 -24.22,-20 -36.34,-47.34 -36.34,-82.02l0 -337.39c0,-10.22 -2.34,-17.89 -7.01,-23.01 -4.67,-5.11 -11.22,-9.44 -19.67,-13l0 -34.67c0,-19.12 4.78,-33.45 14.33,-43 9.56,-9.56 23.45,-14.34 41.68,-14.34l52.01 0 0 58.01 -34.67 0c-8.45,0 -12.67,4.67 -12.67,14l0 6c12,4.89 21.22,11.12 27.67,18.67 6.45,7.55 9.67,18.45 9.67,32.67l0 336.06c0,17.34 5.66,31.34 17,42.01 11.34,10.67 26.78,16 46.34,16 19.12,0 34.45,-5.33 46.01,-16 11.56,-10.67 17.34,-24.67 17.34,-42.01l0 -29.34 70.68 0 0 29.34c0,34.67 -12,62.01 -36.01,82.02 -24,19.99 -56.68,30 -98.02,30zm63.35 -178.69l0 -165.37 -30.67 0 0 -47.33 102.02 0 0 140.68 76.01 -69.35 76.02 69.35 0 -155.35c0,-12.45 -1.89,-22.78 -5.66,-31.01 -3.78,-8.22 -13.01,-15.45 -27.68,-21.67l49.34 -26.01c22.22,8.45 37,18.89 44.34,31.34 7.33,12.44 11.01,28.22 11.01,47.34l0 227.37 -67.35 0 -80.02 -75.35 -79.34 75.35 -68.01 0zm105.34 -246.71c-32.44,0 -58.56,-6 -78.34,-18 -19.78,-12 -29.67,-28.67 -29.67,-50.01 0,-11.12 1.77,-20.89 5.33,-29.34 3.55,-8.45 5.33,-16.22 5.33,-23.34 0,-4.45 -1.01,-7.44 -3.01,-9 -2,-1.56 -5,-2.34 -9,-2.34l-10 0 0 -44.01 39.34 0c17.34,0 29.89,3.33 37.67,10 7.78,6.67 11.67,16.45 11.67,29.34 0,10.22 -1.67,19.79 -5.01,28.67 -3.33,8.89 -5,17.78 -5,26.67 0,10.67 4.33,19.34 13,26.01 8.67,6.67 22.34,10 41,10 16,0 29.68,-2.67 41.01,-8 11.34,-5.33 22.33,-12.89 33,-22.67l6.67 28.67c-13.77,-0.89 -25.56,-6.22 -35.34,-16 -9.77,-9.78 -14.67,-22 -14.67,-36.67 0,-17.34 5.89,-31 17.68,-41 11.77,-10 27.45,-15.01 47,-15.01 20,0 35.79,5.01 47.34,15.01 11.55,10 17.34,23.67 17.34,41 0,11.12 -2.78,20.78 -8.34,29 -5.55,8.23 -12.66,14.9 -21.33,20 -8.67,5.12 -17.68,8.56 -27.01,10.34 -4.89,5.33 -12.67,11.11 -23.34,17.34 -10.67,6.22 -23.78,11.66 -39.34,16.33 -15.56,4.67 -33.56,7.01 -54.01,7.01zm108.69 -79.35c5.78,0 10.45,-1.89 14,-5.67 3.55,-3.77 5.33,-8.33 5.33,-13.66 0,-5.78 -1.78,-10.56 -5.33,-14.33 -3.55,-3.78 -8.22,-5.67 -14,-5.67 -5.33,0 -9.77,1.89 -13.34,5.67 -3.55,3.77 -5.33,8.55 -5.33,14.33 0,5.33 1.78,9.89 5.33,13.66 3.56,3.78 8,5.67 13.34,5.67zm130.69 504.75c-41.34,0 -74.12,-9.77 -98.35,-29.33 -24.22,-19.57 -36.35,-46.24 -36.35,-80.02l0 -32.01 71.35 0 0 32.01c0,16.89 5.67,30.33 17.01,40.34 11.34,10 26.78,15.01 46.34,15.01 19.56,0 35,-5.01 46.34,-15.01 11.34,-10 17.01,-23.45 17.01,-40.34l0 -466.08c0,-19.11 -5.01,-33.67 -15.01,-43.67 -10,-10 -24.55,-15.01 -43.67,-15.01l-122.69 0 0 -77.34c0,-8 -4,-12 -12,-12l-18.67 0 0 -46.01 52.01 0c15.12,0 26.01,3.33 32.67,10 6.67,6.67 10,17.34 10,32.01l0 42.01 72.01 0c38.67,0 67.78,8.78 87.35,26.33 19.56,17.56 29.34,44.12 29.34,79.68l0 470.08c0,33.78 -12,60.45 -36.01,80.02 -24,19.56 -56.9,29.33 -98.69,29.33zm430.07 -172.02c-23.11,0 -42.78,-3.89 -59.01,-11.66 -16.22,-7.78 -29.67,-18.34 -40.34,-31.68 -10.67,-13.34 -19.12,-28.22 -25.34,-44.68l16.67 -35.34c3.11,9.78 8.55,20.23 16.33,31.34 7.78,11.12 17.78,20.34 30.01,27.68 12.22,7.33 26.56,11 43,11 18.67,0 33.01,-4.33 43.01,-13 10,-8.67 15,-21.01 15,-37.01l0 -40.01c-29.34,-4 -57.23,-9.34 -83.68,-16 -26.45,-6.67 -50.01,-15.56 -70.68,-26.66 -20.67,-11.12 -36.89,-25.34 -48.68,-42.68 -11.77,-17.34 -17.67,-38.9 -17.67,-64.68 0,-38.23 13.89,-67.57 41.67,-88.02 27.79,-20.44 64.57,-30.67 110.35,-30.67 44.9,0 80.02,9.01 105.35,27.01 25.34,18 38.01,42.56 38.01,73.68 0,24 -7.67,42.68 -23,56.01 -15.34,13.34 -35.46,20 -60.35,20 -8.89,0 -16.78,-0.78 -23.67,-2.34 -6.9,-1.55 -12.34,-3 -16.34,-4.33l0 -44.68c3.12,1.33 7.01,2.56 11.67,3.66 4.67,1.11 9.23,1.67 13.66,1.67 8.45,0 15.12,-2.56 20,-7.67 4.9,-5.11 7.33,-12.33 7.33,-21.67 0,-14.67 -6.44,-26.22 -19.34,-34.67 -12.89,-8.45 -30.67,-12.67 -53.34,-12.67 -24.44,0 -44,5.89 -58.67,17.68 -14.67,11.77 -22,28.55 -22,50.34 0,24.44 9.22,43.11 27.67,56.01 18.45,12.89 44.12,22.78 77.01,29.67 32.9,6.89 71.35,13.23 115.36,19.01l0 88.67c0,30.67 -9.78,54.46 -29.34,71.35 -19.56,16.89 -46.45,25.34 -80.68,25.34zm-173.36 -6.67l0 -134.03 68.01 0 0 68.01 -4.67 66.01 -63.35 0zm402.07 -169.36c0,-41.34 13,-73.46 39,-96.36 26.01,-22.89 62.12,-34.55 108.35,-35 46.68,0.45 82.9,12.11 108.69,35 25.79,22.9 38.67,55.02 38.67,96.36l0 169.36 -71.35 0 0 -169.36c0.45,-24.45 -6.11,-43.23 -19.67,-56.35 -13.56,-13.11 -32.34,-19.67 -56.35,-19.67 -23.56,0 -42.23,6.56 -56,19.67 -13.78,13.12 -20.45,31.9 -20,56.35l-0.67 169.36 -70.68 0 0 -169.36zm-2.67 -171.37l0 -58.01 300.05 0 0 58.01 -300.05 0zm230.7 512.75l0 -134.68 66.68 0 0 134.68 -66.68 0zm-80.67 -612.1c-23.12,0 -41.45,-6.33 -55.02,-19 -13.55,-12.67 -20.33,-29.23 -20.33,-49.67 0,-20.9 6.78,-37.57 20.33,-50.01 13.56,-12.45 31.9,-18.67 55.02,-18.67 23.56,0 42.12,6.22 55.67,18.67 13.55,12.44 20.33,29.11 20.33,50.01 0,20.44 -6.78,37 -20.33,49.67 -13.55,12.67 -32.12,19 -55.67,19zm0 -39.34c8.44,0 15,-2.67 19.67,-8 4.67,-5.33 7.01,-12.44 7.01,-21.33 0,-8.9 -2.34,-16 -7.01,-21.34 -4.67,-5.33 -11.23,-8 -19.67,-8 -8,0 -14.45,2.67 -19.34,8 -4.9,5.33 -7.33,12.44 -7.33,21.34 0,8.89 2.44,15.99 7.33,21.33 4.89,5.33 11.34,8 19.34,8zm497.41 479.42l0 -308.72 -28.01 -28.01 -46.01 40.01 -4 0 -46 -40.01 -28.01 28.01 0 216.7 -18 -20 10 0c18.67,0 33.34,4.45 44,13.34 10.67,8.9 16,23.34 16,43.34 0,20 -5.33,34.89 -16,44.68 -10.66,9.78 -27.33,14.67 -50,14.67 -19.12,0 -33.45,-3.12 -43.01,-9.34 -9.55,-6.22 -14.33,-15.78 -14.33,-28.67l0 -291.38 83.35 -80.02 4.67 0 59.34 50.01 59.35 -50.01 4.67 0 83.35 80.02 0 325.39 -71.35 0zm-159.35 -29.34c15.56,0 23.34,-8.45 23.34,-25.34 0,-16.89 -7.78,-25.34 -23.34,-25.34l0 50.68zm294.05 208.03c-41.34,0 -74.12,-9.77 -98.35,-29.33 -24.22,-19.57 -36.35,-46.24 -36.35,-80.02l0 -32.01 71.35 0 0 32.01c0,16.89 5.67,30.33 17.01,40.34 11.34,10 26.78,15.01 46.34,15.01 19.56,0 35,-5.01 46.34,-15.01 11.34,-10 17.01,-23.45 17.01,-40.34l0 -340.06c0,-10.22 -2.34,-17.89 -7.01,-23.01 -4.67,-5.11 -11.22,-9.44 -19.67,-13l0 -34.67c0,-19.12 4.78,-33.45 14.33,-43 9.56,-9.56 23.45,-14.34 41.68,-14.34l52.01 0 0 58.01 -34.67 0c-8.45,0 -12.67,4.67 -12.67,14l0 6c12,4.89 21.22,11.12 27.67,18.67 6.45,7.55 9.67,18.45 9.67,32.67l0 338.72c0,33.78 -12,60.45 -36.01,80.02 -24,19.56 -56.9,29.33 -98.69,29.33zm38 133.36c-27.56,0 -48.56,-5.33 -63.01,-16 -14.44,-10.67 -21.67,-25.56 -21.67,-44.68l0 -46.01 55.34 0 0 42.68c0,8 2.78,14.23 8.33,18.67 5.55,4.45 12.11,6.67 19.67,6.67 8.9,0 15.89,-2.22 21.01,-6.67 5.12,-4.44 7.66,-10.67 7.66,-18.67l0 -42.68 62.68 0 0 46.01c0,19.12 -7.66,34.01 -23,44.68 -15.34,10.67 -37.68,16 -67.02,16zm396.74 -449.41c-25.34,-0.89 -49.78,-4.22 -73.34,-10 -23.57,-5.77 -44.57,-14.22 -63.02,-25.33 -18.44,-11.12 -33,-25.46 -43.67,-43.01 -10.67,-17.56 -16,-39.23 -16,-65.01 0,-39.56 13.45,-70.23 40.34,-92.02 26.9,-21.78 63.02,-32.67 108.35,-32.67 30.23,0 56.01,4.67 77.35,14 21.34,9.34 37.68,22 49.01,38.01 11.34,16 17,34.01 17,54.01 0,8 -0.89,15.34 -2.67,22 -1.78,6.67 -4,12.22 -6.67,16.67l-71.35 0c2.23,-5.33 4.34,-11.34 6.34,-18 2,-6.67 3,-12.89 3,-18.67 0,-15.56 -6.33,-28.34 -19,-38.34 -12.67,-10 -29.68,-15.01 -51.02,-15.01 -23.56,0 -42.34,6.11 -56.34,18.33 -14,12.23 -21,30.56 -21,55.02 0,31.11 11.66,53.56 35,67.35 23.34,13.77 55.9,22.44 97.68,26.01l-10 46.67zm-52.68 144.03c-35.56,0 -63.46,-8.67 -83.68,-26.01 -20.22,-17.34 -30.33,-41.78 -30.33,-73.35l0 -30.01 69.35 0 0 30.01c0,14.67 3.88,26.11 11.66,34.35 7.78,8.22 18.56,12.33 32.33,12.33 14.23,0 25.01,-4.11 32.34,-12.33 7.33,-8.23 11,-19.68 11,-34.35l0 -94.68c0,-12.9 4.56,-22.79 13.67,-29.68 9.11,-6.89 22.33,-10.33 39.67,-10.33 20.89,0 36.23,4.89 46.01,14.67 9.78,9.77 14.67,22.89 14.67,39.34 0,17.33 -5.12,30.22 -15.34,38.66 -10.22,8.45 -22.89,12.67 -38.01,12.67l-7.33 0 16 -19.34 0 49.34c0,31.12 -9.66,55.34 -29,72.68 -19.34,17.34 -47.01,26.01 -83.02,26.01zm102.02 -160.7c12.89,0 19.34,-6.67 19.34,-19.99 0,-12.9 -6.45,-19.34 -19.34,-19.34l0 39.33zm-65.34 -290.71c-31.12,0 -55.13,-6 -72.01,-18 -16.89,-12 -25.34,-29.56 -25.34,-52.67 0,-20.9 6.89,-37.01 20.67,-48.35 13.78,-11.34 31.78,-17 54.01,-17 8.44,0 15.66,0.67 21.67,2 6,1.33 10.56,2.44 13.67,3.33l0 38.01c-3.12,-0.9 -6.56,-1.89 -10.34,-3.01 -3.78,-1.11 -7.44,-1.66 -11,-1.66 -8,0 -14.34,2.22 -19.01,6.67 -4.67,4.44 -7,10.44 -7,18 0,9.77 3.44,17.22 10.33,22.33 6.9,5.12 16.78,7.66 29.68,7.66 22.22,0 39.89,-8.67 53.01,-26 13.12,-17.34 21.67,-41.79 25.67,-73.35l64.68 0c-8.44,47.11 -24.56,82.56 -48.34,106.35 -23.79,23.79 -57.24,35.67 -100.35,35.67zm266.71 448.75c-21.79,0 -38.01,-4.89 -48.68,-14.67 -10.67,-9.78 -16,-24.45 -16,-44.01 0,-19.56 5.12,-34.01 15.34,-43.34 10.22,-9.34 24.44,-14 42.68,-14l8.67 0 -16.67 20 0 -174.69c0,-10.67 -3.33,-18.89 -10,-24.67 -6.67,-5.78 -16,-10.67 -28.01,-14.67l0 -35.34c0,-19.12 4.67,-33.45 14,-43 9.34,-9.56 23.34,-14.34 42.01,-14.34l58.01 0 0 58.01 -40.67 0c-8.9,0 -13.34,4.67 -13.34,14l0 6c16.44,4.45 28.67,11.12 36.67,20 8,8.89 12,20.67 12,35.34l0 231.37c0,25.34 -18.67,38.01 -56.01,38.01zm-4.67 -83.35c-15.12,0 -22.67,8.45 -22.67,25.34 0,16.45 7.55,24.67 22.67,24.67l0 -50.01zm246.71 83.35c-19.12,0 -33.23,-3.12 -42.35,-9.34 -9.11,-6.22 -13.66,-15.78 -13.66,-28.67l0 -236.7c0,-10.22 -2.11,-18 -6.34,-23.34 -4.22,-5.33 -9.88,-10 -17,-14l0 -33.34c0,-19.12 4.67,-33.45 14,-43 9.34,-9.56 23.34,-14.34 42.01,-14.34l57.34 0 0 58.01 -40.01 0c-8.9,0 -13.34,4.67 -13.34,14l0 6c11.11,4.89 19.56,11.12 25.34,18.67 5.77,7.55 8.67,18.45 8.67,32.67l0 173.36 -19.34 -21.34 9.34 0c18.67,0 33.34,4.79 44,14.34 10.67,9.55 16,24.78 16,45.67 0,40.89 -21.56,61.35 -64.67,61.35zm6 -33.34c15.11,0 22.67,-9.12 22.67,-27.34 0,-18.22 -7.56,-27.34 -22.67,-27.34l0 54.68zm282.04 36.01c-45.33,0 -80.23,-10 -104.68,-30.01 -24.45,-20 -36.67,-47.11 -36.67,-81.35l0 -74c32.89,-4 62.79,-8.23 89.68,-12.67 26.89,-4.45 50.01,-10.23 69.35,-17.34 19.34,-7.12 34.34,-16.67 45,-28.67 10.67,-12 16,-27.34 16,-46.01 0,-21.79 -7.11,-38.56 -21.34,-50.34 -14.22,-11.78 -34.01,-17.68 -59.35,-17.68 -21.34,0 -38.78,4.45 -52.34,13.34 -13.55,8.89 -20.33,21.34 -20.33,37.34 0,9.34 2.44,16.78 7.33,22.33 4.89,5.56 11.55,8.34 20,8.34 4.44,0 9,-0.56 13.66,-1.67 4.67,-1.1 8.56,-2.33 11.66,-3.66l0 44.68c-4,1.33 -9.33,2.78 -15.99,4.33 -6.67,1.56 -14.67,2.34 -24,2.34 -24.9,0 -45.01,-6.9 -60.35,-20.67 -15.34,-13.78 -23,-33.12 -23,-58.01 0,-32.01 13,-57.13 39,-75.35 26.01,-18.22 61.02,-27.34 105.02,-27.34 45.34,0 81.91,9.78 109.69,29.34 27.78,19.56 41.67,48.68 41.67,87.35 0,27.11 -6.45,49.67 -19.34,67.68 -12.89,18 -30.22,32.56 -52.01,43.68 -21.78,11.11 -45.67,19.78 -71.68,26 -26.01,6.23 -51.9,10.9 -77.68,14l0 32.01c0,18.23 6.44,32.45 19.34,42.68 12.89,10.22 30.22,15.34 52,15.34 21.34,0 38.46,-4.67 51.34,-14 12.9,-9.34 19.34,-22 19.34,-38.01 0,-11.55 -3.77,-22.89 -11.34,-34.01l64.68 -20.67c4.89,8.45 8.78,17.57 11.66,27.34 2.9,9.78 4.34,20.45 4.34,32.01 0,30.67 -12.56,55.23 -37.67,73.69 -25.12,18.44 -59.45,27.67 -103.03,27.67z"/>
     <path class="fil3" d="M7795.02 2678.92c-46.23,0 -82.24,-11.45 -108.01,-34.34 -25.79,-22.9 -38.67,-55.02 -38.67,-96.36l0 -146.69c0,-10.22 -2.34,-17.89 -7.01,-23.01 -4.67,-5.11 -11.22,-9.44 -19.67,-13l0 -34.67c0,-19.12 4.78,-33.45 14.33,-43 9.56,-9.56 23.45,-14.34 41.68,-14.34l52.01 0 0 58.01 -34.67 0c-8.45,0 -12.67,4.67 -12.67,14l0 6c12,4.89 21.22,11.12 27.67,18.67 6.45,7.55 9.67,18.45 9.67,32.67l0 145.35c0,24 6.67,42.68 20,56.01 13.33,13.34 31.78,20 55.33,20 23.57,0 42.01,-6.67 55.34,-20 13.34,-13.34 20,-32.01 20,-56.01l0 -146.69c0,-10.22 -2.33,-17.89 -7,-23.01 -4.67,-5.11 -11.23,-9.44 -19.68,-13l0 -34.67c0,-19.12 4.78,-33.45 14.34,-43 9.55,-9.56 23.45,-14.34 41.67,-14.34l51.34 0 0 58.01 -34.01 0c-8.89,0 -13.34,4.67 -13.34,14l0 6c12.45,4.89 21.79,11.12 28.01,18.67 6.22,7.55 9.34,18.45 9.34,32.67l0 145.35c0,41.34 -12.78,73.46 -38.34,96.36 -25.57,22.89 -61.45,34.34 -107.69,34.34zm-110.68 -180.69l0 -50.68 220.7 0 0 50.68 -220.7 0zm530.09 180.69c-46.23,0 -82.24,-11.45 -108.01,-34.34 -25.79,-22.9 -38.67,-55.02 -38.67,-96.36l0 -146.69c0,-10.22 -2.34,-17.89 -7.01,-23.01 -4.67,-5.11 -11.22,-9.44 -19.67,-13l0 -34.67c0,-19.12 4.78,-33.45 14.33,-43 9.56,-9.56 23.45,-14.34 41.68,-14.34l52.01 0 0 58.01 -34.67 0c-8.45,0 -12.67,4.67 -12.67,14l0 6c12,4.89 21.22,11.12 27.67,18.67 6.45,7.55 9.67,18.45 9.67,32.67l0 145.35c0,24 6.67,42.68 20,56.01 13.33,13.34 31.78,20 55.33,20 23.57,0 42.01,-6.67 55.34,-20 13.34,-13.34 20,-32.01 20,-56.01l0 -146.69c0,-10.22 -2.33,-17.89 -7,-23.01 -4.67,-5.11 -11.23,-9.44 -19.68,-13l0 -34.67c0,-19.12 4.78,-33.45 14.34,-43 9.55,-9.56 23.45,-14.34 41.67,-14.34l51.34 0 0 58.01 -34.01 0c-8.89,0 -13.34,4.67 -13.34,14l0 6c12.45,4.89 21.79,11.12 28.01,18.67 6.22,7.55 9.34,18.45 9.34,32.67l0 145.35c0,41.34 -12.78,73.46 -38.34,96.36 -25.57,22.89 -61.45,34.34 -107.69,34.34zm47.34 172.02c-28.89,0 -51.01,-6.44 -66.34,-19.33 -15.34,-12.9 -23,-30.67 -23,-53.34l0 -68.68 58.68 0 0 67.35c0,9.34 2.67,16.78 8,22.33 5.33,5.55 12.44,8.34 21.33,8.34 8.9,0 16.12,-2.79 21.68,-8.34 5.55,-5.55 8.33,-13 8.33,-22.33l0 -67.35 63.35 0 0 68.68c0,22.67 -7.89,40.45 -23.67,53.34 -15.78,12.89 -38.56,19.33 -68.35,19.33zm674.78 -467.41c0,-34.67 -15.99,-52.01 -48,-52.01l-100.69 0 0 -58.01 115.36 0c69.34,0 104.01,34.89 104.01,104.69l0 294.05 -70.68 0 0 -288.71zm-200.03 292.71c-20.45,0 -36.45,-4.89 -48.01,-14.67 -11.55,-9.78 -17.34,-24.45 -17.34,-44.01 0,-19.56 5.33,-34.01 16,-43.34 10.67,-9.34 25.34,-14 44.01,-14l8.67 0 -17.34 20 0 -174.69c0,-10.23 -2.78,-18.34 -8.33,-24.34 -5.56,-6 -14.11,-11 -25.68,-15l0 -35.34c0,-19.12 4.78,-33.45 14.34,-43 9.55,-9.56 23.67,-14.34 42.34,-14.34l54.01 0 0 58.01 -37.34 0c-8.89,0 -13.34,4.67 -13.34,14l0 6c15.56,4.45 27,11.12 34.34,20 7.33,8.89 11.01,20.67 11.01,35.34l0 231.37c0,12 -4.34,21.34 -13.01,28.01 -8.67,6.67 -23.45,10 -44.34,10zm-216.03 -83.35c-15.57,0 -23.34,8.45 -23.34,25.34 0,16.45 7.77,24.67 23.34,24.67l0 -50.01zm3.33 83.35c-20,0 -35.79,-4.89 -47.34,-14.67 -11.55,-9.78 -17.34,-24.45 -17.34,-44.01 0,-19.56 5.33,-34.01 16,-43.34 10.67,-9.34 25.11,-14 43.34,-14l8.67 0 -16.67 20 0 -174.69c0,-10.67 -3.01,-18.89 -9.01,-24.67 -6,-5.78 -14.33,-10.67 -25,-14.67l0 -35.34c0,-19.12 4.67,-33.45 14,-43 9.34,-9.56 23.34,-14.34 42.01,-14.34l54.01 0 0 58.01 -36.67 0c-8.9,0 -13.34,4.67 -13.34,14l0 6c15.11,4.45 26.33,11.12 33.67,20 7.33,8.89 11.01,20.67 11.01,35.34l0 231.37c0,12.45 -4.34,21.89 -13.01,28.34 -8.67,6.44 -23.45,9.66 -44.34,9.66zm209.36 -83.35c-15.56,0 -23.34,8.45 -23.34,25.34 0,16.45 7.78,24.67 23.34,24.67l0 -50.01zm-197.36 -93.34l0 -48.68 224.03 0 0 48.68 -224.03 0zm736.12 179.36c-42.67,0 -75.9,-10.89 -99.68,-32.67 -23.78,-21.79 -35.67,-52.45 -35.67,-92.02l0 -247.37c0,-7.55 1.77,-14.11 5.33,-19.67 3.55,-5.56 9.34,-9.89 17.34,-13.01 8,-3.11 19.11,-4.67 33.34,-4.67 43.56,0 65.34,19.56 65.34,58.68 0,20 -5.44,34.56 -16.33,43.67 -10.89,9.12 -25.45,13.67 -43.67,13.67l-5.33 0 15.34 -9.34 0 178.03c0,22.23 6.22,39.45 18.67,51.68 12.44,12.22 30.22,18.33 53.33,18.33 22.67,0 40.24,-6.22 52.68,-18.67 12.45,-12.44 18.67,-29.56 18.67,-51.34l0 -152.69c0,-10.22 -2.22,-17.89 -6.67,-23.01 -4.44,-5.11 -10.89,-9.44 -19.34,-13l0 -34.67c0,-19.12 4.67,-33.45 14,-43 9.34,-9.56 23.34,-14.34 42.01,-14.34l51.34 0 0 58.01 -34.01 0c-8.89,0 -13.34,4.67 -13.34,14l0 6c12,4.89 21.23,11.12 27.67,18.67 6.45,7.55 9.67,18.45 9.67,32.67l0 151.35c0,21.79 6.22,38.9 18.67,51.34 12.45,12.45 29.56,18.67 51.34,18.67 22.22,0 39.56,-6.11 52.01,-18.33 12.44,-12.23 18.67,-29.45 18.67,-51.68l0 -152.69c0,-10.22 -2.34,-17.89 -7.01,-23.01 -4.67,-5.11 -11.23,-9.44 -19.67,-13l0 -34.67c0,-19.12 4.67,-33.45 14,-43 9.34,-9.56 23.33,-14.34 42,-14.34l51.34 0 0 58.01 -34.01 0c-8.89,0 -13.34,4.67 -13.34,14l0 6c12.45,4.89 21.79,11.12 28.01,18.67 6.23,7.55 9.34,18.45 9.34,32.67l0 151.35c0,39.57 -11.66,70.23 -35,92.02 -23.34,21.79 -56.34,32.67 -99.01,32.67 -28.45,0 -52.68,-6 -72.68,-18 -20,-12 -35.56,-29.79 -46.68,-53.34l12.67 0c-11.12,23.56 -26.78,41.34 -47,53.34 -20.23,12 -45.01,18 -74.35,18zm-74 -325.39c15.56,0 23.34,-8.67 23.34,-26.01 0,-16.89 -7.78,-25.34 -23.34,-25.34l0 51.34zm562.76 47.34c0,-9.78 -1.67,-17.45 -5.01,-23.01 -3.33,-5.55 -7.88,-10.55 -13.66,-15l0 -28.01c0,-20.45 5.44,-35.79 16.33,-46.01 10.9,-10.22 26.78,-15.34 47.68,-15.34l252.04 0 0 58.01 -236.7 0c-4,0 -7.56,1.11 -10.67,3.33 -3.12,2.22 -4.67,6.22 -4.67,12l0 4.67c7.55,4.89 13.77,11 18.67,18.33 4.89,7.33 7.33,17.89 7.33,31.68l0 198.7 76.01 -69.35 76.02 69.35 0 -126.01 18 20 -10 0c-18.22,0 -32.78,-4.45 -43.67,-13.34 -10.9,-8.9 -16.34,-23.34 -16.34,-43.34 0,-20 5.44,-34.9 16.34,-44.68 10.89,-9.78 27.45,-14.67 49.67,-14.67 19.56,0 34.01,3 43.34,9 9.34,6 14,15.67 14,29.01l0 256.04 -67.35 0 -80.02 -76.02 -79.34 76.02 -68.01 0 0 -271.38zm230.7 10.67c-15.12,0 -22.67,8.44 -22.67,25.34 0,16.89 7.55,25.34 22.67,25.34l0 -50.68zm-128.02 -186.04c-25.79,0 -45.45,-5.33 -59.02,-16 -13.55,-10.67 -20.33,-25.78 -20.33,-45.33 0,-22.23 8.22,-40.13 24.67,-53.68 16.45,-13.55 40.23,-20.33 71.35,-20.33 20.44,0 38.34,2.78 53.67,8.33 15.34,5.56 28.33,12.67 39,21.34 10.67,8.67 19.12,17.45 25.34,26.34l2.67 0 0 -64.68 54.68 0 0 144.02 -192.03 0zm11.34 -37.34l116.01 0c-6.22,-10.22 -14.89,-19 -26.01,-26.33 -11.11,-7.33 -23.45,-13.12 -37,-17.34 -13.55,-4.22 -26.56,-6.33 -39,-6.33 -14.23,0 -24.78,2.44 -31.68,7.33 -6.89,4.89 -10.33,11.55 -10.33,20 0,6.67 2.33,12.11 7,16.33 4.67,4.22 11.67,6.33 21.01,6.33z"/>
    </g>
   </g>
  </g>
 </g>
</svg>
