<?xml version="1.0" encoding="UTF-8"?>
<!DOCTYPE svg PUBLIC "-//W3C//DTD SVG 1.1//EN" "http://www.w3.org/Graphics/SVG/1.1/DTD/svg11.dtd">
<!-- Creator: CorelDRAW -->
<svg xmlns="http://www.w3.org/2000/svg" xml:space="preserve" width="2.66667in" height="0.388417in" version="1.1" style="shape-rendering:geometricPrecision; text-rendering:geometricPrecision; image-rendering:optimizeQuality; fill-rule:evenodd; clip-rule:evenodd"
viewBox="0 0 2711.32 394.92"
 xmlns:xlink="http://www.w3.org/1999/xlink"
 xmlns:xodm="http://www.corel.com/coreldraw/odm/2003">
 <defs>
  <style type="text/css">
   <![CDATA[
    .fil1 {fill:#10B1A9;fill-rule:nonzero}
    .fil0 {fill:#344883;fill-rule:nonzero}
   ]]>
  </style>
 </defs>
 <g id="Layer_x0020_1">
  <metadata id="CorelCorpID_0Corel-Layer"/>
  <g id="_2794768523360">
   <path class="fil0" d="M1837.97 0c120.47,-0.42 190.77,77.08 190.11,197.45 0,119.31 -67.82,197.9 -190.11,197.46 -120.36,0.42 -190.77,-76.92 -190.12,-197.41 0,-119.3 67.81,-197.94 190.12,-197.5zm-1837.97 198.86c0,-65.82 18.29,-116.61 54.76,-152.27 34.61,-33.86 76.92,-47.13 124.69,-46.57 47.76,-0.56 90.07,12.71 124.69,46.57 28.08,27.45 45.37,63.86 51.85,109.19l-85.26 0c-4,-21.67 -11.24,-39.66 -21.71,-53.94 -17,-23.16 -40.13,-34.7 -69.57,-34.7 -29.44,0 -52.57,11.54 -69.57,34.7 -16.91,23.08 -25.41,55.85 -25.41,98.16 0,42.31 8.96,74.04 26.78,95.11 17.91,21.05 40.54,31.64 68.2,31.64 27.66,0 50.29,-10.6 68.19,-31.64 10.69,-12.63 18.19,-29.09 22.48,-49.37l85.19 0c-6.37,39.21 -21.24,71.56 -44.6,97.01 -31.9,34.58 -75.62,51.97 -131.27,52.18 -55.65,-0.21 -99.38,-17.6 -131.28,-52.18 -32.09,-34.97 -48.18,-82.95 -48.18,-143.88zm2059.79 6.83l149.19 0 0 72.4 -149.19 0 0 -72.4zm286.86 189.23l-81.73 0 0 -394.92 81.73 0 0 394.92zm364.66 -394.92l0 69.66 -118.47 0 0 325.26 -82.82 0 0 -325.26 -118.47 0 0 -69.66 319.77 0zm-2205.38 245.72l124.11 0 -62.05 -146.19 -62.05 146.19zm20.35 -245.72l83.95 -0 167.63 394.92 -84.5 0 -34.46 -81.18 -181.85 0 -32.24 81.18 -85.93 0 167.39 -394.92zm581.86 -0l81.73 0 0 394.92 -81.73 0c0,-110.46 0,-91.94 0,-202.38l-85.9 202.38 -46.49 0 -85.9 -202.38c0,110.44 0,91.92 0,202.38l-81.73 0 0 -394.92 81.73 0 109.15 257.14 109.15 -257.14zm241.06 68.02l0 87.76 93.44 0c17.1,0 30.99,-3.29 41.68,-9.88 10.7,-6.58 16,-18.19 16,-34.92 0,-18.56 -7.04,-30.81 -21.21,-36.75 -12.16,-4.12 -27.7,-6.22 -46.62,-6.22l-83.29 0zm0 153.03l0 105.86 93.07 0c17.1,0 30.35,-2.38 39.86,-7.04 17.28,-8.59 25.87,-25.14 25.87,-49.55 0,-20.66 -8.32,-34.83 -25.05,-42.51 -9.32,-4.39 -22.49,-6.58 -39.31,-6.76l-94.44 0zm109.16 -221.04c48.18,0.73 82.27,14.71 102.29,42.05 12.06,16.82 18.1,36.93 18.1,60.33 0,24.13 -6.13,43.52 -18.29,58.14 -6.86,8.23 -16.82,15.72 -30.17,22.49 20.2,7.41 35.38,19.01 45.71,34.83 10.24,15.91 15.36,35.2 15.36,57.87 0,23.4 -5.85,44.43 -17.55,62.99 -7.49,12.34 -16.82,22.67 -27.97,31.08 -12.61,9.6 -27.42,16.18 -44.52,19.75 -17.18,3.56 -35.74,5.39 -55.76,5.39l-177.81 0 0 -394.92 190.6 0zm488.52 197.48c-0.93,-65.13 -35.36,-131.68 -108.91,-131.68 -74.53,0 -108.47,66.61 -109.12,131.68 0.64,65.06 34.59,131.66 109.12,131.66 73.55,0 107.98,-66.54 108.91,-131.66z"/>
   <path class="fil1" d="M1837.97 191.3c-5.77,0 -10.48,-4.46 -10.48,-9.93l0 -35.06c0,-13.06 20.96,-13.06 20.96,0l0 35.06c0,5.46 -4.72,9.93 -10.48,9.93zm0 111.64c71.08,0.4 84.82,-67.74 80.88,-122.11l-56.1 0c0,29.21 -49.56,29.21 -49.56,0l-56.1 0c-3.94,54.37 9.8,122.51 80.88,122.11zm10.72 -211.57c40.02,3.82 60.55,33.52 67.51,69.15l-53.46 0c0,-13.12 2.39,-26.76 -14.05,-33.65l0 -35.49zm-21.45 0c-40.02,3.82 -60.55,33.52 -67.51,69.15l53.46 0c0,-13.12 -2.39,-26.76 14.05,-33.65l0 -35.49z"/>
  </g>
 </g>
</svg>
