<?xml version="1.0" encoding="UTF-8"?>
<!DOCTYPE svg PUBLIC "-//W3C//DTD SVG 1.1//EN" "http://www.w3.org/Graphics/SVG/1.1/DTD/svg11.dtd">
<!-- Creator: CorelDRAW -->
<svg xmlns="http://www.w3.org/2000/svg" xml:space="preserve" width="255.925mm" height="74.6516mm" version="1.1" style="shape-rendering:geometricPrecision; text-rendering:geometricPrecision; image-rendering:optimizeQuality; fill-rule:evenodd; clip-rule:evenodd"
viewBox="0 0 25573.27 7459.56"
 xmlns:xlink="http://www.w3.org/1999/xlink"
 xmlns:xodm="http://www.corel.com/coreldraw/odm/2003">
 <defs>
  <style type="text/css">
   <![CDATA[
    .fil0 {fill:white}
    .fil3 {fill:black;fill-rule:nonzero}
    .fil1 {fill:#00357C;fill-rule:nonzero}
    .fil2 {fill:#00A9A4;fill-rule:nonzero}
   ]]>
  </style>
 </defs>
 <g id="Layer_x0020_1">
  <metadata id="CorelCorpID_0Corel-Layer"/>
  <rect class="fil0" width="25573.27" height="7459.56"/>
  <g id="_1841189107360">
   <path class="fil1" d="M352.52 2307.45c0,-631.35 167.7,-1118.52 502.25,-1460.61 290.94,-297.65 660.7,-446.91 1110.13,-446.91 602.01,0 1041.38,199.56 1319.76,598.67 153.43,223.86 236.44,448.59 247.34,674.13l-749.61 0c-114.28,-415.02 -327.37,-628.86 -783.96,-628.86 -269.99,0 -482.12,110.69 -638.08,332.87 -155.11,221.37 -233.11,535.79 -233.11,941.61 0,405.81 82.18,710.19 245.7,912.27 164.32,202.07 372.28,303.53 624.65,303.53 463.65,0 667.92,-258.25 779.77,-679.17l749.6 0c-64.55,394.06 -229.75,715.22 -496.38,962.56 -265.8,247.34 -607.03,370.61 -1022.92,370.61 -1105.3,0 -1655.15,-792.62 -1655.15,-1880.7zm16849.11 -1311.26c694.88,0 979.09,581.35 982.62,1258.76 2.13,406.75 -81.41,732.26 -264.89,962.25 -176.93,221.35 -415.9,332.04 -717.75,332.04 -690.73,0 -988.09,-581.33 -989.32,-1258.75 -0.76,-414.55 83.91,-733.37 269.09,-962.26 179.44,-221.36 419.24,-332.04 720.25,-332.04zm1184.76 2772c364.74,-332.87 547.52,-830.93 547.52,-1494.17l-0.13 -30.39c-5.05,-649.39 -187.76,-1138.18 -547.39,-1466.4 -554.77,-570.09 -1826.36,-562.44 -2373.71,0 -366.42,332.89 -550.06,830.93 -550.06,1494.18l0.13 30.39c5.08,649.38 188.65,1138.19 549.93,1466.39 547.35,562.44 1818.94,570.08 2373.71,0zm858.6 -1416.3l1368.38 0 0 664.06 -1368.38 0 0 -664.06zm2631.12 1735.64l-749.6 0 0 -3622.19 749.6 0 0 3622.19zm3344.66 -3622.19l0 638.91 -1086.67 0 0 2983.28 -759.63 0 0 -2983.28 -1086.67 0 0 -638.91 2932.98 0zm-20092.32 2253.78l925.69 0 -456.12 -1425.37 -469.57 1425.37zm51.16 -2253.78l855.23 0 1276.14 3622.19 -820 0 -238.11 -744.56 -1329.83 0 -245.68 744.56 -788.16 0 1290.41 -3622.19zm5001.5 0l1084.98 0 0 3622.19 -699.29 0 0 -2450.03 5.02 -589.43 -689.2 3039.46 -739.55 0 -684.19 -3039.46 5.04 589.43 0 2450.03 -699.29 0 0 -3622.19 1096.71 0 662.4 2848.29 657.37 -2848.29zm2523.79 623.8l0 804.96 879.56 0c156.79,0 284.25,-30.19 382.33,-90.56 98.11,-60.36 146.74,-166.86 146.74,-320.32 0,-170.19 -64.56,-282.56 -194.52,-337.04 -111.52,-37.73 -254.07,-57.04 -427.62,-57.04l-786.49 0zm0 1403.63l0 970.95 876.2 0c361.46,0 602.86,-117.57 602.86,-519.04 0,-357.47 -266.24,-450.15 -590.28,-451.91l-888.78 0zm1023.79 -2027.43c441.87,6.7 754.59,134.97 938.24,385.7 217.22,299.67 229.54,808.79 -1.7,1086.63 -62.86,75.46 -154.26,144.21 -276.68,206.28 381.9,139.97 560.11,445.68 560.11,850.21 0,508.74 -326.87,940.12 -825.9,1043.91 -157.62,32.68 -327.83,49.46 -511.47,49.46l-1630.83 0 0 -3622.19 1748.23 0z"/>
   <path class="fil2" d="M17210.42 1707.65c40.46,0 73.51,33.07 73.51,73.49l0 339.55c0,96.87 -147.01,96.87 -147.01,0l0 -339.55c0,-40.43 33.07,-73.49 73.49,-73.49zm-8.78 1590.32c646.82,0 762.38,-669.42 726.06,-1187.76l-489.99 0c0,290.73 -454.54,290.73 -454.54,0l-514.2 0c-36.96,520.57 85.65,1187.76 732.68,1187.76zm712.26 -1318.89c-53.09,-371.87 -237.07,-698.35 -637.91,-731.33l0 333.37c90.62,25.06 161.72,103.64 161.72,200.03l0 197.93 476.19 0zm-769.04 -732.61c-412.59,25.27 -606.68,350.52 -661.93,732.61l500.24 0 0 -197.93c0,-96.38 71.07,-174.98 161.69,-200.01l0 -334.67z"/>
   <path class="fil3" d="M1912.95 6372.65c-111.18,0 -197.77,-27.53 -259.78,-82.59 -62,-55.05 -93,-132.29 -93,-231.71l0 -352.78c0,-24.58 -5.62,-43.03 -16.84,-55.32 -11.22,-12.29 -26.99,-22.71 -47.3,-31.27l0 -83.39c0,-45.97 11.49,-80.44 34.47,-103.42 22.98,-22.98 56.39,-34.47 100.22,-34.47l125.07 0 0 139.51 -83.38 0c-20.31,0 -30.47,11.22 -30.47,33.67l0 14.43c28.86,11.76 51.04,26.72 66.55,44.9 15.5,18.18 23.24,44.37 23.24,78.57l0 349.57c0,57.73 16.04,102.62 48.11,134.7 32.07,32.07 76.43,48.1 133.09,48.1 56.66,0 101.01,-16.04 133.09,-48.1 32.07,-32.08 48.1,-76.97 48.1,-134.7l0 -352.78c0,-24.58 -5.62,-43.03 -16.84,-55.32 -11.22,-12.29 -26.99,-22.71 -47.3,-31.27l0 -83.39c0,-45.97 11.49,-80.44 34.47,-103.42 22.98,-22.98 56.4,-34.47 100.22,-34.47l123.47 0 0 139.51 -81.78 0c-21.38,0 -32.07,11.22 -32.07,33.67l0 14.43c29.93,11.76 52.38,26.72 67.34,44.9 14.97,18.18 22.45,44.37 22.45,78.57l0 349.57c0,99.42 -30.74,176.66 -92.2,231.71 -61.47,55.06 -147.79,82.59 -258.97,82.59zm-266.19 -434.55l0 -121.87 530.77 0 0 121.87 -530.77 0z"/>
   <path id="_1" class="fil3" d="M2568.79 5703.98c0,-22.45 -3.75,-40.62 -11.22,-54.52 -7.48,-13.9 -19.25,-26.19 -35.28,-36.88l0 -67.35c0,-49.17 13.1,-86.06 39.29,-110.64 26.19,-24.59 64.94,-36.88 116.25,-36.88l166.76 0 160.35 76.96 35.28 0c19.24,0 33.67,-4.54 43.29,-13.63 9.62,-9.08 14.44,-23.78 14.44,-44.1l0 -76.96 153.93 0 0 91.4c0,35.27 -5.08,65.47 -15.24,90.59 -10.15,25.12 -28.06,44.37 -53.71,57.73 -25.66,13.37 -60.4,20.04 -104.23,20.04l-113.85 0 -128.27 -62.53 -121.87 0c-10.69,0 -19.78,2.67 -27.26,8.01 -7.48,5.35 -11.23,14.97 -11.23,28.87l0 11.22c19.25,11.76 34.48,26.46 45.71,44.1 11.22,17.64 16.84,43.03 16.84,76.16l0 474.64 171.57 -166.76 169.97 166.76 0 -445.78 171.58 0 0 622.16 -161.96 0 -179.6 -182.8 -177.99 182.8 -163.56 0 0 -652.63z"/>
   <path id="_2" class="fil3" d="M2708.3 6781.54c-45.97,0 -78.84,-5.88 -98.62,-17.64 -19.78,-11.76 -29.67,-29.94 -29.67,-54.52l0 -118.66c0,-53.45 18.72,-93.54 56.13,-120.26 37.41,-26.73 96.21,-40.09 176.39,-40.09 82.31,0 142.98,11.49 181.99,34.47 39.02,22.98 58.54,58.53 58.54,106.63l0 36.88c0,21.38 7.21,37.68 21.64,48.91 14.43,11.22 33.4,16.83 56.93,16.83 28.86,0 51.04,-7.21 66.54,-21.64 15.51,-14.43 23.25,-33.94 23.25,-58.53l0 -147.53 152.34 0 0 147.53c0,24.58 8.55,44.1 25.66,58.53 17.1,14.43 39.55,21.64 67.34,21.64 24.59,0 45.71,-7.21 63.34,-21.64 17.64,-14.43 26.46,-33.94 26.46,-58.53l0 -888.35c0,-24.58 -5.62,-43.03 -16.84,-55.32 -11.22,-12.29 -26.99,-22.71 -47.3,-31.27l0 -83.39c0,-45.97 11.49,-80.44 34.47,-103.42 22.98,-22.98 56.39,-34.47 100.22,-34.47l125.07 0 0 139.51 -83.38 0c-20.31,0 -30.47,11.22 -30.47,33.67l0 14.43c28.86,11.76 51.04,26.72 66.55,44.9 15.5,18.18 23.24,44.37 23.24,78.57l0 889.95c0,59.87 -21.37,105.3 -64.14,136.3 -42.76,31.01 -101.01,46.51 -174.78,46.51 -54.52,0 -99.69,-9.88 -135.5,-29.67 -35.81,-19.78 -61.2,-48.37 -76.16,-85.79l40.09 0c-13.9,37.41 -38.76,66.01 -74.56,85.79 -35.81,19.79 -80.45,29.67 -133.9,29.67 -65.21,0 -115.18,-12.29 -149.93,-36.88 -34.74,-24.58 -52.11,-60.93 -52.11,-109.04l0 -44.9c0,-17.11 -7.75,-30.47 -23.25,-40.09 -15.5,-9.62 -38.22,-14.43 -68.15,-14.43 -31.01,0 -54.26,4.81 -69.76,14.43 -15.5,9.62 -23.25,22.98 -23.25,40.09l0 22.45 -11.22 -17.65 19.25 0c29.93,0 52.65,7.75 68.15,23.25 15.5,15.5 23.25,38.22 23.25,68.15 0,31.01 -9.35,54.52 -28.07,70.56 -18.71,16.04 -47.3,24.05 -85.79,24.05zm11.22 -54.52c12.83,0 22.72,-3.48 29.67,-10.42 6.95,-6.94 10.42,-16.84 10.42,-29.67 0,-12.83 -3.47,-22.44 -10.42,-28.86 -6.94,-6.42 -16.84,-9.62 -29.67,-9.62l0 78.57z"/>
   <path id="_3" class="fil3" d="M4385.58 6372.65c-111.18,0 -197.77,-27.53 -259.78,-82.59 -62,-55.05 -93,-132.29 -93,-231.71l0 -352.78c0,-24.58 -5.62,-43.03 -16.84,-55.32 -11.22,-12.29 -26.99,-22.71 -47.3,-31.27l0 -83.39c0,-45.97 11.49,-80.44 34.47,-103.42 22.98,-22.98 56.39,-34.47 100.22,-34.47l125.07 0 0 139.51 -83.38 0c-20.31,0 -30.47,11.22 -30.47,33.67l0 14.43c28.86,11.76 51.04,26.72 66.55,44.9 15.5,18.18 23.24,44.37 23.24,78.57l0 349.57c0,57.73 16.04,102.62 48.11,134.7 32.07,32.07 76.43,48.1 133.09,48.1 56.66,0 101.01,-16.04 133.09,-48.1 32.07,-32.08 48.1,-76.97 48.1,-134.7l0 -352.78c0,-24.58 -5.62,-43.03 -16.84,-55.32 -11.22,-12.29 -26.99,-22.71 -47.3,-31.27l0 -83.39c0,-45.97 11.49,-80.44 34.47,-103.42 22.98,-22.98 56.4,-34.47 100.22,-34.47l123.47 0 0 139.51 -81.78 0c-21.38,0 -32.07,11.22 -32.07,33.67l0 14.43c29.93,11.76 52.38,26.72 67.34,44.9 14.97,18.18 22.45,44.37 22.45,78.57l0 349.57c0,99.42 -30.74,176.66 -92.2,231.71 -61.47,55.06 -147.79,82.59 -258.97,82.59zm-266.19 -434.55l0 -121.87 530.77 0 0 121.87 -530.77 0z"/>
   <path id="_4" class="fil3" d="M5540.11 5676.72c0,-51.31 -14.44,-91.4 -43.3,-120.27 -28.87,-28.86 -68.95,-43.29 -120.27,-43.29 -51.31,0 -91.39,14.43 -120.26,43.29 -28.86,28.87 -43.3,68.96 -43.3,120.27l0 458.61 -43.29 -48.1 24.05 0c44.9,0 80.17,10.69 105.83,32.07 25.65,21.38 38.48,56.13 38.48,104.23 0,48.1 -12.83,83.92 -38.48,107.43 -25.66,23.52 -65.75,35.28 -120.27,35.28 -45.97,0 -80.44,-7.48 -103.42,-22.45 -22.98,-14.97 -34.47,-37.95 -34.47,-68.95l0 -598.11c0,-93.01 29.67,-165.43 88.99,-217.28 59.34,-51.85 141.37,-77.77 246.14,-77.77 105.84,0 187.88,25.92 246.15,77.77 58.26,51.85 87.39,124.27 87.39,217.28l0 508.31 152.34 -161.95 152.33 161.95 0 -508.31c0,-93.01 29.14,-165.43 87.39,-217.28 58.27,-51.85 140.3,-77.77 246.15,-77.77 104.76,0 186.81,25.92 246.14,77.77 59.33,51.85 88.99,124.27 88.99,217.28l0 679.89 -171.57 0 0 -679.89c0,-51.31 -14.44,-91.4 -43.3,-120.27 -28.87,-28.86 -68.95,-43.29 -120.26,-43.29 -51.32,0 -91.14,14.43 -119.47,43.29 -28.33,28.87 -42.49,68.96 -42.49,120.27l0 679.89 -163.56 0 -160.35 -171.58 -160.36 171.58 -161.95 0 0 -679.89zm-344.76 609.33c37.41,0 56.13,-20.3 56.13,-60.93 0,-40.62 -18.72,-60.93 -56.13,-60.93l0 121.87z"/>
   <path id="_5" class="fil3" d="M5732.53 6786.35c-47.03,0 -84.99,-4.27 -113.84,-12.82 -28.87,-8.55 -49.44,-21.38 -61.73,-38.49 -12.3,-17.1 -18.45,-38.48 -18.45,-64.13l0 -59.34 460.21 -36.88c16.03,-2.14 26.72,-5.35 32.07,-9.62 5.35,-4.28 8.01,-11.75 8.01,-22.44l-73.75 -24.05 -145.92 38.48 -144.32 -38.48 -129.88 32.07 0 -86.59 121.87 -33.67 152.34 52.91 152.34 -52.91 216.47 72.16 0 48.1c0,32.08 -13.63,54.25 -40.89,66.55 -27.26,12.29 -59.6,20.04 -97.01,23.25l-367.2 30.47 8.01 -6.42c0,18.17 5.62,30.47 16.84,36.87 11.22,6.42 29.13,9.62 53.72,9.62 26.72,0 53.98,-2.4 81.78,-7.21 27.79,-4.81 57.73,-9.35 89.79,-13.63 32.08,-4.28 66.82,-5.61 104.23,-4.01 37.41,1.6 79.64,8.28 126.67,20.04l-25.65 80.17c-42.77,-11.75 -80.98,-18.44 -114.65,-20.03 -33.67,-1.61 -65.74,-0.54 -96.21,3.21 -30.47,3.74 -61.2,7.47 -92.2,11.22 -31.01,3.74 -65.21,5.61 -102.63,5.61z"/>
   <path id="_6" class="fil3" d="M7844.36 6372.65c-107.97,0 -191.63,-27.26 -250.95,-81.78 -59.33,-54.52 -88.99,-130.96 -88.99,-229.31l0 -370.41c0,-55.59 -15.24,-99.15 -45.71,-130.68 -30.47,-31.54 -72.96,-47.3 -127.47,-47.3 -54.52,0 -96.75,15.77 -126.67,47.3 -29.94,31.54 -44.91,75.09 -44.91,130.68l0 444.18 -43.29 -48.1 24.05 0c44.9,0 80.17,10.69 105.83,32.07 25.65,21.38 38.48,56.13 38.48,104.23 0,48.1 -12.83,83.92 -38.48,107.43 -25.66,23.52 -65.75,35.28 -120.27,35.28 -45.97,0 -80.44,-7.48 -103.42,-22.45 -22.98,-14.97 -34.47,-37.95 -34.47,-68.95l0 -583.68c0,-98.35 30.2,-174.52 90.6,-228.5 60.39,-53.99 144.58,-80.98 252.55,-80.98 110.11,0 195.09,26.99 254.96,80.98 59.87,53.98 89.79,130.15 89.79,228.5l0 370.41c0,56.66 14.7,100.75 44.1,132.29 29.4,31.54 70.83,47.3 124.28,47.3 53.45,0 95.14,-15.77 125.08,-47.3 29.93,-31.54 44.9,-75.63 44.9,-132.29l0 -355.98c0,-24.58 -5.62,-43.03 -16.84,-55.32 -11.22,-12.29 -26.99,-22.71 -47.3,-31.27l0 -83.39c0,-45.97 11.22,-80.44 33.67,-103.42 22.45,-22.98 56.12,-34.47 101.02,-34.47l123.47 0 0 139.51 -81.78 0c-21.38,0 -32.07,11.22 -32.07,33.67l0 14.43c29.93,11.76 52.38,26.72 67.34,44.9 14.97,18.18 22.45,44.37 22.45,78.57l0 352.78c0,98.35 -29.67,174.79 -88.99,229.31 -59.34,54.52 -142.98,81.78 -250.95,81.78zm-702.34 -86.6c37.41,0 56.13,-20.3 56.13,-60.93 0,-40.62 -18.72,-60.93 -56.13,-60.93l0 121.87z"/>
   <path id="_7" class="fil3" d="M8841.76 6372.65c-111.18,0 -197.77,-27.53 -259.78,-82.59 -62,-55.05 -93,-132.29 -93,-231.71l0 -352.78c0,-24.58 -5.62,-43.03 -16.84,-55.32 -11.22,-12.29 -26.99,-22.71 -47.3,-31.27l0 -83.39c0,-45.97 11.49,-80.44 34.47,-103.42 22.98,-22.98 56.39,-34.47 100.22,-34.47l125.07 0 0 139.51 -83.38 0c-20.31,0 -30.47,11.22 -30.47,33.67l0 14.43c28.86,11.76 51.04,26.72 66.55,44.9 15.5,18.18 23.24,44.37 23.24,78.57l0 349.57c0,57.73 16.04,102.62 48.11,134.7 32.07,32.07 76.43,48.1 133.09,48.1 56.66,0 101.01,-16.04 133.09,-48.1 32.07,-32.08 48.1,-76.97 48.1,-134.7l0 -352.78c0,-24.58 -5.62,-43.03 -16.84,-55.32 -11.22,-12.29 -26.99,-22.71 -47.3,-31.27l0 -83.39c0,-45.97 11.49,-80.44 34.47,-103.42 22.98,-22.98 56.4,-34.47 100.22,-34.47l123.47 0 0 139.51 -81.78 0c-21.38,0 -32.07,11.22 -32.07,33.67l0 14.43c29.93,11.76 52.38,26.72 67.34,44.9 14.97,18.18 22.45,44.37 22.45,78.57l0 349.57c0,99.42 -30.74,176.66 -92.2,231.71 -61.47,55.06 -147.79,82.59 -258.97,82.59z"/>
   <path id="_8" class="fil3" d="M9637.1 6366.23c-45.97,0 -79.91,-7.48 -101.82,-22.45 -21.91,-14.97 -32.88,-37.95 -32.88,-68.95l0 -569.25c0,-24.58 -5.08,-43.29 -15.23,-56.12 -10.16,-12.83 -23.79,-24.05 -40.89,-33.67l0 -80.18c0,-45.97 11.22,-80.44 33.67,-103.42 22.44,-22.98 56.12,-34.47 101.01,-34.47l137.91 0 0 139.51 -96.21 0c-21.38,0 -32.08,11.22 -32.08,33.67l0 14.43c26.73,11.76 47.03,26.72 60.93,44.9 13.9,18.18 20.84,44.37 20.84,78.57l0 416.92 -46.5 -51.31 22.44 0c44.9,0 80.18,11.49 105.83,34.47 25.66,22.98 38.49,59.6 38.49,109.84 0,98.36 -51.85,147.53 -155.54,147.53zm14.43 -80.18c36.35,0 54.52,-21.91 54.52,-65.74 0,-43.83 -18.17,-65.74 -54.52,-65.74l0 131.48z"/>
   <path id="_9" class="fil3" d="M10331.42 6786.35c-99.42,0 -178.26,-24.05 -236.51,-72.16 -58.27,-48.1 -87.39,-113.84 -87.39,-197.23l0 -811.38c0,-24.58 -5.62,-43.03 -16.84,-55.32 -11.22,-12.29 -26.99,-22.71 -47.3,-31.27l0 -83.39c0,-45.97 11.49,-80.44 34.47,-103.42 22.98,-22.98 56.39,-34.47 100.22,-34.47l125.07 0 0 139.51 -83.38 0c-20.31,0 -30.47,11.22 -30.47,33.67l0 14.43c28.86,11.76 51.04,26.72 66.55,44.9 15.5,18.18 23.24,44.37 23.24,78.57l0 808.17c0,41.69 13.63,75.36 40.89,101.02 27.26,25.65 64.41,38.48 111.45,38.48 45.97,0 82.85,-12.83 110.65,-38.48 27.79,-25.66 41.69,-59.34 41.69,-101.02l0 -70.56 169.97 0 0 70.56c0,83.39 -28.86,149.13 -86.59,197.23 -57.73,48.1 -136.31,72.16 -235.72,72.16z"/>
   <path id="_10" class="fil3" d="M10483.75 6356.61l0 -397.67 -73.76 0 0 -113.85 245.34 0 0 338.35 182.8 -166.76 182.8 166.76 0 -373.62c0,-29.93 -4.55,-54.79 -13.63,-74.56 -9.08,-19.78 -31.27,-37.15 -66.55,-52.11l118.66 -62.54c53.45,20.31 88.99,45.44 106.64,75.37 17.64,29.93 26.45,67.88 26.45,113.84l0 546.8 -161.95 0 -192.43 -181.19 -190.82 181.19 -163.56 0zm253.35 -593.3c-78.03,0 -140.83,-14.43 -188.41,-43.29 -47.57,-28.87 -71.36,-68.96 -71.36,-120.27 0,-26.72 4.28,-50.24 12.83,-70.56 8.55,-20.3 12.83,-39.01 12.83,-56.12 0,-10.69 -2.41,-17.91 -7.22,-21.64 -4.81,-3.75 -12.02,-5.62 -21.64,-5.62l-24.05 0 0 -105.83 94.61 0c41.69,0 71.89,8.01 90.59,24.05 18.72,16.04 28.07,39.55 28.07,70.56 0,24.58 -4.01,47.56 -12.03,68.95 -8.01,21.38 -12.02,42.76 -12.02,64.14 0,25.65 10.42,46.5 31.27,62.53 20.84,16.04 53.72,24.05 98.62,24.05 38.48,0 71.36,-6.42 98.62,-19.24 27.26,-12.83 53.72,-31.01 79.37,-54.52l16.04 68.95c-33.14,-2.14 -61.46,-14.97 -84.99,-38.48 -23.52,-23.52 -35.27,-52.92 -35.27,-88.19 0,-41.7 14.16,-74.56 42.49,-98.62 28.33,-24.06 66.01,-36.08 113.05,-36.08 48.11,0 86.06,12.02 113.85,36.08 27.79,24.05 41.69,56.92 41.69,98.62 0,26.72 -6.67,49.97 -20.04,69.75 -13.36,19.78 -30.47,35.81 -51.31,48.1 -20.84,12.3 -42.49,20.58 -64.94,24.86 -11.76,12.82 -30.47,26.72 -56.13,41.69 -25.65,14.97 -57.19,28.06 -94.6,39.28 -37.42,11.23 -80.71,16.84 -129.89,16.84zm261.37 -190.82c13.9,0 25.12,-4.54 33.67,-13.63 8.55,-9.08 12.83,-20.04 12.83,-32.87 0,-13.9 -4.28,-25.39 -12.83,-34.48 -8.55,-9.08 -19.78,-13.63 -33.67,-13.63 -12.82,0 -23.51,4.55 -32.07,13.63 -8.55,9.09 -12.83,20.58 -12.83,34.48 0,12.82 4.28,23.78 12.83,32.87 8.55,9.09 19.25,13.63 32.07,13.63z"/>
   <path id="_11" class="fil3" d="M11312.77 6786.35c-99.42,0 -178.26,-23.51 -236.52,-70.55 -58.26,-47.03 -87.38,-111.18 -87.38,-192.43l0 -76.97 171.57 0 0 76.97c0,40.62 13.63,72.97 40.89,97.02 27.26,24.05 64.41,36.07 111.45,36.07 47.03,0 84.19,-12.02 111.45,-36.07 27.26,-24.05 40.89,-56.4 40.89,-97.02l0 -1120.86c0,-45.97 -12.03,-80.98 -36.08,-105.03 -24.05,-24.05 -59.06,-36.07 -105.03,-36.07l-295.05 0 0 -186.01c0,-19.25 -9.61,-28.87 -28.86,-28.87l-44.9 0 0 -110.64 125.08 0c36.34,0 62.53,8.01 78.57,24.05 16.03,16.04 24.05,41.69 24.05,76.97l0 101.01 173.18 0c93,0 163.02,21.11 210.06,63.34 47.03,42.23 70.55,106.1 70.55,191.62l0 1130.48c0,81.25 -28.86,145.39 -86.59,192.43 -57.73,47.03 -136.84,70.55 -237.32,70.55z"/>
   <path id="_12" class="fil3" d="M12347.04 6372.65c-55.59,0 -102.89,-9.35 -141.91,-28.07 -39.01,-18.71 -71.36,-44.1 -97.01,-76.16 -25.66,-32.07 -45.97,-67.88 -60.93,-107.44l40.09 -84.99c7.48,23.52 20.57,48.64 39.28,75.37 18.72,26.72 42.77,48.9 72.17,66.54 29.4,17.64 63.87,26.46 103.42,26.46 44.9,0 79.37,-10.42 103.42,-31.27 24.06,-20.84 36.08,-50.51 36.08,-88.99l0 -96.22c-70.56,-9.62 -137.64,-22.44 -201.24,-38.48 -63.61,-16.04 -120.27,-37.41 -169.97,-64.14 -49.71,-26.73 -88.73,-60.93 -117.06,-102.62 -28.33,-41.69 -42.49,-93.54 -42.49,-155.54 0,-91.93 33.4,-162.49 100.21,-211.66 66.82,-49.17 155.27,-73.76 265.38,-73.76 107.98,0 192.43,21.64 253.36,64.94 60.93,43.3 91.4,102.36 91.4,177.19 0,57.73 -18.44,102.63 -55.32,134.7 -36.88,32.07 -85.26,48.1 -145.12,48.1 -21.38,0 -40.36,-1.87 -56.93,-5.62 -16.57,-3.74 -29.67,-7.21 -39.28,-10.42l0 -107.43c7.48,3.21 16.84,6.15 28.06,8.81 11.22,2.68 22.18,4.02 32.88,4.02 20.3,0 36.34,-6.16 48.1,-18.45 11.76,-12.29 17.64,-29.67 17.64,-52.11 0,-35.28 -15.5,-63.07 -46.51,-83.39 -31,-20.3 -73.75,-30.47 -128.28,-30.47 -58.79,0 -105.83,14.17 -141.1,42.5 -35.27,28.33 -52.92,68.68 -52.92,121.06 0,58.8 22.18,103.7 66.55,134.7 44.37,31.01 106.1,54.79 185.2,71.36 79.11,16.57 171.58,31.81 277.41,45.71l0 213.26c0,73.76 -23.51,130.95 -70.56,171.58 -47.03,40.62 -111.71,60.93 -194.02,60.93zm-416.91 -16.04l0 -322.31 163.56 0 0 163.56 -11.23 158.75 -152.33 0z"/>
   <path id="_13" class="fil3" d="M12897.04 5949.32c0,-99.42 31.27,-176.66 93.8,-231.71 62.54,-55.06 149.4,-83.12 260.57,-84.19 112.25,1.07 199.37,29.13 261.37,84.19 62,55.05 93,132.29 93,231.71l0 407.29 -171.57 0 0 -407.29c1.07,-58.8 -14.7,-103.96 -47.3,-135.5 -32.61,-31.54 -77.77,-47.3 -135.5,-47.3 -56.66,0 -101.55,15.77 -134.69,47.3 -33.15,31.54 -49.18,76.7 -48.11,135.5l-1.6 407.29 -169.97 0 0 -407.29zm-6.42 -412.1l0 -139.51 721.58 0 0 139.51 -721.58 0z"/>
   <polygon id="_14" class="fil3" points="13445.44,6770.32 13445.44,6446.4 13605.79,6446.4 13605.79,6770.32 "/>
   <path id="_15" class="fil3" d="M13251.42 5298.29c-55.59,0 -99.69,-15.23 -132.29,-45.7 -32.61,-30.47 -48.91,-70.29 -48.91,-119.46 0,-50.24 16.31,-90.33 48.91,-120.27 32.61,-29.93 76.7,-44.9 132.29,-44.9 56.66,0 101.28,14.97 133.89,44.9 32.61,29.94 48.9,70.03 48.9,120.27 0,49.17 -16.3,88.99 -48.9,119.46 -32.61,30.47 -77.23,45.7 -133.89,45.7zm0 -94.6c20.3,0 36.07,-6.42 47.3,-19.25 11.22,-12.83 16.84,-29.94 16.84,-51.31 0,-21.38 -5.62,-38.48 -16.84,-51.31 -11.23,-12.83 -27,-19.25 -47.3,-19.25 -19.25,0 -34.74,6.42 -46.51,19.25 -11.76,12.83 -17.64,29.93 -17.64,51.31 0,21.37 5.88,38.48 17.64,51.31 11.76,12.83 27.26,19.25 46.51,19.25z"/>
   <path id="_16" class="fil3" d="M14447.64 6356.61l0 -742.43 -67.35 -67.34 -110.64 96.21 -9.62 0 -110.65 -96.21 -67.35 67.34 0 521.15 -43.29 -48.1 24.05 0c44.9,0 80.17,10.69 105.83,32.07 25.65,21.38 38.48,56.13 38.48,104.23 0,48.1 -12.83,83.92 -38.48,107.43 -25.66,23.52 -65.75,35.28 -120.27,35.28 -45.97,0 -80.44,-7.48 -103.42,-22.45 -22.98,-14.97 -34.47,-37.95 -34.47,-68.95l0 -700.73 200.44 -192.43 11.22 0 142.71 120.26 142.71 -120.26 11.22 0 200.44 192.43 0 782.51 -171.57 0zm-383.24 -70.56c37.41,0 56.13,-20.3 56.13,-60.93 0,-40.62 -18.72,-60.93 -56.13,-60.93l0 121.87z"/>
   <path id="_17" class="fil3" d="M14771.55 6786.35c-99.42,0 -178.26,-23.51 -236.52,-70.55 -58.26,-47.03 -87.38,-111.18 -87.38,-192.43l0 -76.97 171.57 0 0 76.97c0,40.62 13.63,72.97 40.89,97.02 27.26,24.05 64.41,36.07 111.45,36.07 47.03,0 84.19,-12.02 111.45,-36.07 27.26,-24.05 40.89,-56.4 40.89,-97.02l0 -817.8c0,-24.58 -5.62,-43.03 -16.84,-55.32 -11.22,-12.29 -26.99,-22.71 -47.3,-31.27l0 -83.39c0,-45.97 11.49,-80.44 34.47,-103.42 22.98,-22.98 56.39,-34.47 100.22,-34.47l125.07 0 0 139.51 -83.38 0c-20.31,0 -30.47,11.22 -30.47,33.67l0 14.43c28.86,11.76 51.04,26.72 66.55,44.9 15.5,18.18 23.24,44.37 23.24,78.57l0 814.59c0,81.25 -28.86,145.39 -86.59,192.43 -57.73,47.03 -136.84,70.55 -237.32,70.55z"/>
   <path id="_18" class="fil3" d="M14862.95 7107.06c-66.28,0 -116.79,-12.83 -151.54,-38.48 -34.73,-25.66 -52.11,-61.47 -52.11,-107.44l0 -110.65 133.09 0 0 102.63c0,19.24 6.68,34.2 20.04,44.9 13.36,10.69 29.13,16.04 47.3,16.04 21.38,0 38.22,-5.35 50.51,-16.04 12.29,-10.69 18.44,-25.66 18.44,-44.9l0 -102.63 150.74 0 0 110.65c0,45.97 -18.45,81.78 -55.32,107.44 -36.88,25.65 -90.6,38.48 -161.16,38.48z"/>
   <path id="_19" class="fil3" d="M15817.04 6026.29c-60.93,-2.14 -119.73,-10.16 -176.39,-24.05 -56.66,-13.9 -107.17,-34.21 -151.54,-60.93 -44.37,-26.73 -79.37,-61.2 -105.03,-103.43 -25.65,-42.22 -38.48,-94.34 -38.48,-156.34 0,-95.14 32.34,-168.9 97.01,-221.28 64.68,-52.38 151.54,-78.57 260.57,-78.57 72.7,0 134.7,11.22 186.01,33.67 51.31,22.45 90.59,52.92 117.85,91.4 27.27,38.48 40.9,81.78 40.9,129.88 0,19.25 -2.14,36.88 -6.42,52.92 -4.28,16.03 -9.62,29.4 -16.04,40.08l-171.58 0c5.35,-12.82 10.42,-27.26 15.24,-43.29 4.81,-16.04 7.21,-31.01 7.21,-44.91 0,-37.41 -15.23,-68.15 -45.7,-92.2 -30.47,-24.05 -71.36,-36.07 -122.68,-36.07 -56.66,0 -101.82,14.7 -135.49,44.1 -33.67,29.4 -50.51,73.49 -50.51,132.29 0,74.82 28.06,128.81 84.18,161.95 56.13,33.15 134.43,53.99 234.92,62.54l-24.05 112.25zm-126.68 346.36c-85.52,0 -152.6,-20.84 -201.24,-62.54 -48.64,-41.69 -72.96,-100.48 -72.96,-176.39l0 -72.16 166.76 0 0 72.16c0,35.28 9.35,62.81 28.06,82.59 18.71,19.78 44.63,29.66 77.77,29.66 34.2,0 60.13,-9.88 77.77,-29.66 17.64,-19.78 26.45,-47.3 26.45,-82.59l0 -227.7c0,-31 10.96,-54.78 32.88,-71.36 21.91,-16.57 53.72,-24.85 95.41,-24.85 50.24,0 87.12,11.76 110.65,35.27 23.51,23.52 35.27,55.06 35.27,94.61 0,41.7 -12.29,72.7 -36.88,93.01 -24.58,20.3 -55.05,30.47 -91.4,30.47l-17.64 0 38.49 -46.51 0 118.66c0,74.83 -23.25,133.09 -69.76,174.78 -46.51,41.7 -113.05,62.54 -199.64,62.54zm245.34 -386.45c31.01,0 46.51,-16.04 46.51,-48.1 0,-31.01 -15.5,-46.51 -46.51,-46.51l0 94.61z"/>
   <path id="_20" class="fil3" d="M15778.55 5287.06c-74.83,0 -132.56,-14.43 -173.18,-43.3 -40.63,-28.86 -60.93,-71.09 -60.93,-126.67 0,-50.24 16.57,-88.99 49.7,-116.25 33.15,-27.26 76.43,-40.89 129.88,-40.89 20.31,0 37.69,1.6 52.12,4.81 14.43,3.21 25.39,5.89 32.88,8.02l0 91.39c-7.48,-2.14 -15.77,-4.54 -24.86,-7.21 -9.08,-2.67 -17.91,-4.01 -26.46,-4.01 -19.24,0 -34.47,5.35 -45.7,16.04 -11.22,10.69 -16.84,25.12 -16.84,43.3 0,23.51 8.28,41.42 24.85,53.71 16.58,12.3 40.36,18.45 71.36,18.45 53.45,0 95.95,-20.84 127.48,-62.54 31.54,-41.69 52.11,-100.48 61.73,-176.38l155.54 0c-20.31,113.31 -59.07,198.56 -116.25,255.76 -57.2,57.19 -137.64,85.79 -241.33,85.79z"/>
   <path id="_21" class="fil3" d="M16419.96 6366.23c-52.38,0 -91.4,-11.76 -117.06,-35.28 -25.65,-23.51 -38.48,-58.8 -38.48,-105.83 0,-47.03 12.29,-81.78 36.88,-104.22 24.58,-22.45 58.8,-33.67 102.62,-33.67l20.84 0 -40.09 48.1 0 -420.12c0,-25.65 -8.01,-45.44 -24.05,-59.33 -16.03,-13.9 -38.48,-25.66 -67.35,-35.28l0 -84.99c0,-45.97 11.23,-80.44 33.67,-103.42 22.45,-22.98 56.13,-34.47 101.02,-34.47l139.51 0 0 139.51 -97.82 0c-21.37,0 -32.07,11.22 -32.07,33.67l0 14.43c39.55,10.69 68.95,26.72 88.19,48.1 19.25,21.38 28.86,49.71 28.86,84.99l0 556.42c0,60.93 -44.9,91.4 -134.69,91.4zm-11.23 -200.44c-36.34,0 -54.52,20.3 -54.52,60.93 0,39.55 18.18,59.33 54.52,59.33l0 -120.26z"/>
   <path id="_22" class="fil3" d="M17002.03 6366.23c-45.97,0 -79.91,-7.48 -101.82,-22.45 -21.91,-14.97 -32.88,-37.95 -32.88,-68.95l0 -569.25c0,-24.58 -5.08,-43.29 -15.23,-56.12 -10.16,-12.83 -23.79,-24.05 -40.89,-33.67l0 -80.18c0,-45.97 11.22,-80.44 33.67,-103.42 22.44,-22.98 56.12,-34.47 101.01,-34.47l137.91 0 0 139.51 -96.21 0c-21.38,0 -32.08,11.22 -32.08,33.67l0 14.43c26.73,11.76 47.03,26.72 60.93,44.9 13.9,18.18 20.84,44.37 20.84,78.57l0 416.92 -46.5 -51.31 22.44 0c44.9,0 80.18,11.49 105.83,34.47 25.66,22.98 38.49,59.6 38.49,109.84 0,98.36 -51.85,147.53 -155.54,147.53zm14.43 -80.18c36.35,0 54.52,-21.91 54.52,-65.74 0,-43.83 -18.17,-65.74 -54.52,-65.74l0 131.48z"/>
   <path id="_23" class="fil3" d="M17694.76 6372.65c-109.04,0 -192.96,-24.05 -251.75,-72.17 -58.8,-48.1 -88.19,-113.31 -88.19,-195.62l0 -177.99c79.1,-9.62 151,-19.79 215.67,-30.47 64.68,-10.69 120.27,-24.59 166.76,-41.7 46.51,-17.1 82.59,-40.09 108.24,-68.95 25.66,-28.87 38.48,-65.74 38.48,-110.65 0,-52.38 -17.1,-92.73 -51.31,-121.06 -34.2,-28.33 -81.78,-42.5 -142.71,-42.5 -51.31,0 -93.27,10.69 -125.88,32.08 -32.61,21.37 -48.9,51.31 -48.9,89.79 0,22.45 5.88,40.36 17.64,53.72 11.76,13.36 27.8,20.04 48.1,20.04 10.69,0 21.65,-1.34 32.88,-4.01 11.22,-2.68 20.57,-5.62 28.06,-8.82l0 107.44c-9.62,3.21 -22.44,6.67 -38.48,10.42 -16.04,3.74 -35.28,5.61 -57.73,5.61 -59.87,0 -108.24,-16.57 -145.12,-49.7 -36.88,-33.15 -55.32,-79.64 -55.32,-139.51 0,-76.97 31.27,-137.37 93.8,-181.2 62.54,-43.83 146.73,-65.74 252.56,-65.74 109.04,0 196.96,23.52 263.77,70.56 66.82,47.03 100.22,117.05 100.22,210.06 0,65.2 -15.5,119.46 -46.51,162.76 -31,43.29 -72.7,78.3 -125.08,105.02 -52.38,26.73 -109.84,47.57 -172.37,62.54 -62.54,14.97 -124.81,26.19 -186.81,33.67l0 76.96c0,43.84 15.5,78.04 46.5,102.63 31.01,24.58 72.7,36.87 125.08,36.87 51.31,0 92.47,-11.22 123.48,-33.66 31,-22.45 46.5,-52.92 46.5,-91.4 0,-27.8 -9.08,-55.06 -27.26,-81.78l155.54 -49.71c11.76,20.31 21.11,42.23 28.06,65.74 6.95,23.52 10.42,49.17 10.42,76.97 0,73.76 -30.2,132.82 -90.59,177.19 -60.4,44.37 -142.98,66.55 -247.74,66.55z"/>
   <path id="_24" class="fil3" d="M18676.11 6372.65c-111.18,0 -197.77,-27.53 -259.78,-82.59 -62,-55.05 -93,-132.29 -93,-231.71l0 -352.78c0,-24.58 -5.62,-43.03 -16.84,-55.32 -11.22,-12.29 -26.99,-22.71 -47.3,-31.27l0 -83.39c0,-45.97 11.49,-80.44 34.47,-103.42 22.98,-22.98 56.39,-34.47 100.22,-34.47l125.07 0 0 139.51 -83.38 0c-20.31,0 -30.47,11.22 -30.47,33.67l0 14.43c28.86,11.76 51.04,26.72 66.55,44.9 15.5,18.18 23.24,44.37 23.24,78.57l0 349.57c0,57.73 16.04,102.62 48.11,134.7 32.07,32.07 76.43,48.1 133.09,48.1 56.66,0 101.01,-16.04 133.09,-48.1 32.07,-32.08 48.1,-76.97 48.1,-134.7l0 -352.78c0,-24.58 -5.62,-43.03 -16.84,-55.32 -11.22,-12.29 -26.99,-22.71 -47.3,-31.27l0 -83.39c0,-45.97 11.49,-80.44 34.47,-103.42 22.98,-22.98 56.4,-34.47 100.22,-34.47l123.47 0 0 139.51 -81.78 0c-21.38,0 -32.07,11.22 -32.07,33.67l0 14.43c29.93,11.76 52.38,26.72 67.34,44.9 14.97,18.18 22.45,44.37 22.45,78.57l0 349.57c0,99.42 -30.74,176.66 -92.2,231.71 -61.47,55.06 -147.79,82.59 -258.97,82.59zm-266.19 -434.55l0 -121.87 530.77 0 0 121.87 -530.77 0z"/>
   <path id="_25" class="fil3" d="M19684.72 6372.65c-111.18,0 -197.77,-27.53 -259.78,-82.59 -62,-55.05 -93,-132.29 -93,-231.71l0 -352.78c0,-24.58 -5.62,-43.03 -16.84,-55.32 -11.22,-12.29 -26.99,-22.71 -47.3,-31.27l0 -83.39c0,-45.97 11.49,-80.44 34.47,-103.42 22.98,-22.98 56.39,-34.47 100.22,-34.47l125.07 0 0 139.51 -83.38 0c-20.31,0 -30.47,11.22 -30.47,33.67l0 14.43c28.86,11.76 51.04,26.72 66.55,44.9 15.5,18.18 23.24,44.37 23.24,78.57l0 349.57c0,57.73 16.04,102.62 48.11,134.7 32.07,32.07 76.43,48.1 133.09,48.1 56.66,0 101.01,-16.04 133.09,-48.1 32.07,-32.08 48.1,-76.97 48.1,-134.7l0 -352.78c0,-24.58 -5.62,-43.03 -16.84,-55.32 -11.22,-12.29 -26.99,-22.71 -47.3,-31.27l0 -83.39c0,-45.97 11.49,-80.44 34.47,-103.42 22.98,-22.98 56.4,-34.47 100.22,-34.47l123.47 0 0 139.51 -81.78 0c-21.38,0 -32.07,11.22 -32.07,33.67l0 14.43c29.93,11.76 52.38,26.72 67.34,44.9 14.97,18.18 22.45,44.37 22.45,78.57l0 349.57c0,99.42 -30.74,176.66 -92.2,231.71 -61.47,55.06 -147.79,82.59 -258.97,82.59z"/>
   <path id="_26" class="fil3" d="M19798.58 6786.35c-69.49,0 -122.67,-15.5 -159.55,-46.5 -36.88,-31.01 -55.33,-73.76 -55.33,-128.28l0 -165.17 141.11 0 0 161.96c0,22.45 6.42,40.36 19.25,53.72 12.82,13.36 29.93,20.04 51.31,20.04 21.37,0 38.75,-6.68 52.11,-20.04 13.36,-13.36 20.04,-31.27 20.04,-53.72l0 -161.96 152.34 0 0 165.17c0,54.52 -18.98,97.28 -56.93,128.28 -37.95,31 -92.74,46.5 -164.36,46.5z"/>
   <path id="_27" class="fil3" d="M21421.33 5662.29c0,-83.39 -38.48,-125.08 -115.45,-125.08l-242.13 0 0 -139.51 277.4 0c166.76,0 250.15,83.92 250.15,251.75l0 707.15 -169.97 0 0 -694.32zm-481.06 703.94c-49.17,0 -87.65,-11.76 -115.45,-35.28 -27.79,-23.51 -41.69,-58.8 -41.69,-105.83 0,-47.03 12.83,-81.78 38.48,-104.22 25.66,-22.45 60.93,-33.67 105.84,-33.67l20.84 0 -41.7 48.1 0 -420.12c0,-24.58 -6.67,-44.1 -20.03,-58.53 -13.37,-14.43 -33.94,-26.46 -61.74,-36.08l0 -84.99c0,-45.97 11.49,-80.44 34.48,-103.42 22.98,-22.98 56.92,-34.47 101.82,-34.47l129.88 0 0 139.51 -89.8 0c-21.37,0 -32.07,11.22 -32.07,33.67l0 14.43c37.41,10.69 64.94,26.72 82.58,48.1 17.64,21.38 26.46,49.71 26.46,84.99l0 556.42c0,28.86 -10.42,51.31 -31.27,67.35 -20.84,16.03 -56.4,24.05 -106.64,24.05zm-519.54 -200.44c-37.41,0 -56.12,20.3 -56.12,60.93 0,39.55 18.71,59.33 56.12,59.33l0 -120.26zm8.02 200.44c-48.1,0 -86.06,-11.76 -113.85,-35.28 -27.79,-23.51 -41.69,-58.8 -41.69,-105.83 0,-47.03 12.83,-81.78 38.48,-104.22 25.66,-22.45 60.4,-33.67 104.23,-33.67l20.84 0 -40.09 48.1 0 -420.12c0,-25.65 -7.21,-45.44 -21.64,-59.33 -14.43,-13.9 -34.47,-25.66 -60.13,-35.28l0 -84.99c0,-45.97 11.23,-80.44 33.67,-103.42 22.45,-22.98 56.13,-34.47 101.02,-34.47l129.88 0 0 139.51 -88.19 0c-21.37,0 -32.07,11.22 -32.07,33.67l0 14.43c36.34,10.69 63.33,26.72 80.98,48.1 17.64,21.38 26.45,49.71 26.45,84.99l0 556.42c0,29.93 -10.42,52.65 -31.27,68.15 -20.84,15.5 -56.39,23.25 -106.63,23.25zm503.5 -200.44c-37.41,0 -56.13,20.3 -56.13,60.93 0,39.55 18.72,59.33 56.13,59.33l0 -120.26zm-474.64 -224.49l0 -117.06 538.79 0 0 117.06 -538.79 0z"/>
   <path id="_28" class="fil3" d="M22227.9 6372.65c-102.63,0 -182.53,-26.19 -239.73,-78.57 -57.19,-52.38 -85.79,-126.15 -85.79,-221.29l0 -594.9c0,-18.17 4.28,-33.93 12.83,-47.3 8.54,-13.36 22.44,-23.78 41.69,-31.27 19.25,-7.48 45.97,-11.22 80.17,-11.22 104.77,0 157.15,47.03 157.15,141.1 0,48.11 -13.1,83.12 -39.29,105.03 -26.19,21.91 -61.2,32.88 -105.03,32.88l-12.83 0 36.88 -22.45 0 428.14c0,53.46 14.97,94.88 44.91,124.28 29.93,29.4 72.69,44.1 128.27,44.1 54.52,0 96.75,-14.97 126.68,-44.9 29.93,-29.94 44.9,-71.09 44.9,-123.48l0 -367.2c0,-24.58 -5.35,-43.03 -16.04,-55.32 -10.69,-12.29 -26.19,-22.71 -46.51,-31.27l0 -83.39c0,-45.97 11.23,-80.44 33.67,-103.42 22.45,-22.98 56.13,-34.47 101.02,-34.47l123.47 0 0 139.51 -81.78 0c-21.37,0 -32.07,11.22 -32.07,33.67l0 14.43c28.86,11.76 51.04,26.72 66.54,44.9 15.51,18.18 23.25,44.37 23.25,78.57l0 364c0,52.39 14.97,93.54 44.91,123.48 29.93,29.93 71.09,44.9 123.47,44.9 53.45,0 95.14,-14.7 125.08,-44.1 29.93,-29.4 44.9,-70.82 44.9,-124.28l0 -367.2c0,-24.58 -5.62,-43.03 -16.84,-55.32 -11.22,-12.29 -26.99,-22.71 -47.3,-31.27l0 -83.39c0,-45.97 11.22,-80.44 33.67,-103.42 22.45,-22.98 56.12,-34.47 101.02,-34.47l123.47 0 0 139.51 -81.78 0c-21.38,0 -32.07,11.22 -32.07,33.67l0 14.43c29.93,11.76 52.38,26.72 67.34,44.9 14.97,18.18 22.45,44.37 22.45,78.57l0 364c0,95.15 -28.06,168.91 -84.19,221.29 -56.12,52.38 -135.5,78.57 -238.12,78.57 -68.42,0 -126.67,-14.44 -174.78,-43.3 -48.11,-28.87 -85.53,-71.63 -112.25,-128.28l30.47 0c-26.73,56.66 -64.41,99.42 -113.06,128.28 -48.63,28.86 -108.24,43.3 -178.79,43.3zm-178 -782.52c37.42,0 56.13,-20.84 56.13,-62.53 0,-40.62 -18.71,-60.93 -56.13,-60.93l0 123.47z"/>
   <path id="_29" class="fil3" d="M23403.28 5703.98c0,-23.52 -4.01,-41.96 -12.03,-55.32 -8.01,-13.37 -18.98,-25.39 -32.87,-36.08l0 -67.35c0,-49.17 13.09,-86.06 39.28,-110.64 26.19,-24.59 64.41,-36.88 114.65,-36.88l606.13 0 0 139.51 -569.24 0c-9.62,0 -18.18,2.67 -25.66,8.01 -7.48,5.35 -11.22,14.97 -11.22,28.87l0 11.22c18.18,11.76 33.14,26.46 44.9,44.1 11.76,17.64 17.64,43.03 17.64,76.16l0 477.85 182.8 -166.76 182.8 166.76 0 -303.06 43.3 48.1 -24.05 0c-43.84,0 -78.84,-10.69 -105.03,-32.07 -26.19,-21.38 -39.29,-56.13 -39.29,-104.23 0,-48.1 13.1,-83.92 39.29,-107.44 26.19,-23.51 66.01,-35.27 119.46,-35.27 47.03,0 81.78,7.21 104.23,21.64 22.44,14.43 33.66,37.68 33.66,69.76l0 615.75 -161.95 0 -192.43 -182.8 -190.82 182.8 -163.56 0 0 -652.63zm554.81 25.65c-36.34,0 -54.52,20.31 -54.52,60.93 0,40.63 18.18,60.93 54.52,60.93l0 -121.87z"/>
   <path id="_30" class="fil3" d="M23650.22 5282.26c-62,0 -109.31,-12.83 -141.91,-38.49 -32.61,-25.65 -48.9,-61.99 -48.9,-109.04 0,-53.45 19.78,-96.48 59.33,-129.08 39.55,-32.61 96.75,-48.9 171.58,-48.9 49.17,0 92.2,6.68 129.08,20.04 36.88,13.36 68.15,30.47 93.8,51.31 25.66,20.84 45.97,41.96 60.93,63.34l6.42 0 0 -155.54 131.49 0 0 346.36 -461.81 0zm27.26 -89.8l279.01 0c-14.97,-24.58 -35.81,-45.7 -62.53,-63.33 -26.73,-17.65 -56.4,-31.54 -89,-41.7 -32.61,-10.15 -63.87,-15.23 -93.8,-15.23 -34.21,0 -59.6,5.88 -76.17,17.64 -16.57,11.76 -24.85,27.8 -24.85,48.1 0,16.04 5.62,29.14 16.84,39.29 11.22,10.15 28.06,15.23 50.51,15.23z"/>
  </g>
 </g>
</svg>
