<?xml version="1.0" encoding="UTF-8"?>
<!DOCTYPE svg PUBLIC "-//W3C//DTD SVG 1.1//EN" "http://www.w3.org/Graphics/SVG/1.1/DTD/svg11.dtd">
<!-- Creator: CorelDRAW 2021 (64-Bit) -->
<svg xmlns="http://www.w3.org/2000/svg" xml:space="preserve" width="2.29166in" height="0.75137in" version="1.1" style="shape-rendering:geometricPrecision; text-rendering:geometricPrecision; image-rendering:optimizeQuality; fill-rule:evenodd; clip-rule:evenodd"
viewBox="0 0 2291.65 751.37"
 xmlns:xlink="http://www.w3.org/1999/xlink"
 xmlns:xodm="http://www.corel.com/coreldraw/odm/2003">
 <defs>
  <style type="text/css">
   <![CDATA[
    .fil1 {fill:#09948E}
    .fil2 {fill:#8ECF37}
    .fil0 {fill:white}
   ]]>
  </style>
 </defs>
 <g id="Layer_x0020_1">
  <metadata id="CorelCorpID_0Corel-Layer"/>
  <rect class="fil0" x="-0" y="0" width="2291.65" height="751.37" rx="36.25" ry="20.83"/>
  <g id="_2445307444000">
   <path class="fil1" d="M277.93 328.45l0 -57.74c0,-2.9 2.36,-5.26 5.26,-5.26 111.44,0 321.59,-0.11 429.81,0 87.55,0.08 133.82,48.82 133.82,135.26l0 287.26c0,2.9 -2.36,5.26 -5.26,5.26l-75.58 0c-2.9,0 -5.26,-2.36 -5.26,-5.26l0 -287.26c0,-44.5 -7.67,-66.9 -48.67,-67.02 -107.92,0 -317.74,0 -428.87,0 -2.9,0 -5.26,-2.36 -5.26,-5.26zm1664.54 143.96l24.09 0c35.07,0 60.22,26.78 60.22,65.41l0 76.85c0,2.02 1.06,3.76 2.87,4.69 1.8,0.92 3.83,0.76 5.48,-0.43l52.8 -38.34c1.87,-1.36 4.31,-1.36 6.18,0l52.8 38.35c1.64,1.19 3.67,1.35 5.48,0.43 1.81,-0.92 2.87,-2.66 2.87,-4.69l0 -198.4c0,-1.9 -0.93,-3.53 -2.55,-4.5 -1.63,-0.98 -3.5,-1.02 -5.18,-0.13 -53.68,28.66 -137.5,24.15 -180.92,-10.46 -32.42,-25.84 -24.14,-90.56 -24.14,-141.69l-0.01 0c0,-4.98 -1.4,-9.65 -3.83,-13.62 11.9,3.04 22.25,6.59 31.33,10.53 27.41,11.88 43.29,27.47 55.72,42.37 0.37,0.44 0.77,0.85 1.19,1.24 -0.06,5.84 -0.1,12.04 -0.1,18.68 0,24.25 -3.67,36.2 13.92,48.02 12.34,8.3 41.54,11.98 62.19,7.33 1.81,-0.41 3.17,-1.61 3.79,-3.35 0.63,-1.74 0.34,-3.54 -0.8,-5 -30.74,-39.63 -3.25,-100.54 49.67,-100.54 50.83,0 79.14,56.86 52.05,97.17 -0.85,1.26 -1.11,2.67 -0.75,4.16 0.36,1.48 1.22,2.62 2.56,3.36 23.29,12.98 30.16,34.59 30.16,60.23l0 257.91c0,2.9 -2.36,5.26 -5.26,5.26l-77.35 0c-1.16,0 -2.15,-0.32 -3.09,-1l-59.76 -43.39c-1.88,-1.37 -4.32,-1.35 -6.2,0.02 -73.07,53.46 -40.8,44.69 -140.2,44.39 -2.89,-0.01 -5.24,-2.37 -5.24,-5.26l0 -92.56c0,-2.82 -2.23,-5.14 -5.05,-5.25 -49,-1.94 -51.16,-32.72 -51.16,-66.39 0,-32.16 16.69,-51.37 56.21,-51.37zm213.09 -165.55c27.37,0 27.38,41.59 0,41.59 -27.39,0 -27.39,-41.59 0,-41.59zm-213.09 241.63l0 -31.78c0,-2.69 -1.99,-4.92 -4.67,-5.22 -4.74,-0.54 -11.4,2.15 -11.4,15.32 0,18.48 -1.63,25.44 10.17,26.89 1.55,0.19 2.96,-0.24 4.13,-1.28 1.17,-1.03 1.77,-2.37 1.77,-3.93zm-998.41 -76.07l24.09 0c35.07,0 60.22,26.78 60.22,65.41l0 76.85c0,2.02 1.06,3.76 2.87,4.69 1.8,0.92 3.84,0.76 5.48,-0.43l52.8 -38.34c1.87,-1.36 4.31,-1.36 6.18,0l52.8 38.35c1.64,1.19 3.67,1.35 5.48,0.43 1.81,-0.92 2.87,-2.66 2.87,-4.69l0 -198.4c0,-1.9 -0.92,-3.53 -2.55,-4.5 -1.63,-0.98 -3.5,-1.02 -5.18,-0.13 -53.67,28.66 -137.5,24.15 -180.92,-10.46 -32.42,-25.84 -24.14,-90.56 -24.14,-141.69l-0.01 0c0,-12.97 -9.52,-23.82 -21.91,-25.92 -2.55,-0.43 -4.38,-2.6 -4.38,-5.18l0 -9.65c0,-2.9 2.36,-5.26 5.26,-5.26l21.04 0 0 -0.04c96.68,0 84.31,-10.86 84.31,105.24 0,24.25 -3.67,36.2 13.92,48.02 12.34,8.3 41.55,11.98 62.19,7.33 1.81,-0.41 3.17,-1.61 3.79,-3.35 0.63,-1.74 0.34,-3.54 -0.8,-5 -30.74,-39.63 -3.25,-100.54 49.67,-100.54 50.83,0 79.15,56.86 52.05,97.17 -0.85,1.26 -1.11,2.67 -0.75,4.16 0.36,1.48 1.22,2.62 2.56,3.36 23.29,12.98 30.16,34.59 30.16,60.23l0 257.91c0,2.9 -2.36,5.26 -5.26,5.26l-77.35 0c-1.16,0 -2.15,-0.32 -3.09,-1l-59.76 -43.39c-1.88,-1.37 -4.32,-1.35 -6.19,0.02 -73.08,53.46 -40.8,44.69 -140.2,44.39 -2.89,-0.01 -5.24,-2.37 -5.24,-5.26l0 -92.56c0,-2.82 -2.23,-5.14 -5.05,-5.25 -49,-1.94 -51.16,-32.72 -51.16,-66.39 0,-32.16 16.69,-51.37 56.2,-51.37zm213.09 -165.55c27.37,0 27.38,41.59 0,41.59 -27.39,0 -27.39,-41.59 0,-41.59zm-213.09 241.63l0 -31.78c0,-2.69 -1.99,-4.92 -4.67,-5.22 -4.74,-0.54 -11.4,2.15 -11.4,15.32 0,18.48 -1.63,25.44 10.17,26.89 1.55,0.19 2.96,-0.24 4.13,-1.28 1.17,-1.03 1.77,-2.37 1.77,-3.93zm767.34 -283.03c87.54,0.08 133.82,48.83 133.82,135.26l0 287.26c0,2.9 -2.36,5.26 -5.26,5.26l-75.58 0c-2.9,0 -5.26,-2.36 -5.26,-5.26l0 -287.26c0,-44.5 -7.67,-66.9 -48.67,-67.02 -103.22,0 -308.2,0 -414.76,0 -2.9,0 -5.26,-2.36 -5.26,-5.26l0 -57.74c0,-2.9 2.36,-5.26 5.26,-5.26 106.88,0 312.18,-0.1 415.7,0zm-300.51 96.35c18.74,0 142.63,0 161.37,0 66.33,0 120.44,54.12 120.44,120.44l0 205.72c0,2.9 -2.36,5.26 -5.26,5.26l-73.8 0c-2.89,0 -5.26,-2.36 -5.26,-5.26l0 -197.69c0,-33.17 -27.06,-60.22 -60.22,-60.22l-8.29 0c-2.9,0 -5.26,2.36 -5.26,5.26l0 252.66c0,2.9 -2.36,5.26 -5.26,5.26l-75.58 0c-2.9,0 -5.26,-2.36 -5.26,-5.26l0 -252.66c0,-2.89 -2.36,-5.26 -5.26,-5.26l-8.29 0c-33.16,0 -60.22,27.06 -60.22,60.22l0 197.69c0,2.9 -2.36,5.26 -5.26,5.26l-73.8 0c-2.9,0 -5.26,-2.36 -5.26,-5.26l0 -205.72c0,-66.34 54.11,-120.44 120.44,-120.44zm-1210.04 331.42c53.38,0 56.21,-50.7 56.21,-88.32 0,-43.86 -20.12,-66.4 -59.21,-68.14 -2.81,-0.13 -5.02,-2.44 -5.02,-5.25l0 -109.48c0,-33.17 -27.06,-60.22 -60.22,-60.22l-18.9 0c-2.85,0 -5.19,-2.28 -5.26,-5.13 -0.74,-29.91 -5.94,-23.43 79.1,-23.17 1.45,0.01 2.7,-0.5 3.73,-1.53 1.03,-1.03 1.55,-2.28 1.55,-3.73l0 -57.55c0,-2.89 -2.36,-5.25 -5.25,-5.26 -144.89,-0.33 -135.54,-13.56 -135.27,115.24 0,2.86 2.3,5.2 5.16,5.25 25.51,0.47 51.05,5.44 51.05,44.12 0,34.3 -2.82,201.4 2.29,219.4 14.35,48.1 57.78,43.76 90.05,43.76zm-8.1 -103.29c-0.43,16.62 -2.39,51.09 8.1,51.09 15.08,0 12.05,-19.45 12.05,-36.13 0,-18.43 -4.54,-20 -14.84,-20.09 -2.87,-0.03 -5.23,2.26 -5.3,5.12zm205.63 -228.13c18.74,0 142.63,0 161.37,0 66.33,0 120.44,54.12 120.44,120.44l0 205.72c0,2.9 -2.36,5.26 -5.26,5.26l-73.8 0c-2.89,0 -5.26,-2.36 -5.26,-5.26l0 -197.69c0,-33.17 -27.06,-60.22 -60.22,-60.22l-8.3 0c-2.89,0 -5.26,2.36 -5.26,5.26l0 252.66c0,2.9 -2.36,5.26 -5.26,5.26l-75.58 0c-2.9,0 -5.26,-2.36 -5.26,-5.26l0 -252.66c0,-2.89 -2.36,-5.26 -5.26,-5.26l-8.29 0c-33.16,0 -60.23,27.06 -60.23,60.22l0 197.69c0,2.9 -2.36,5.26 -5.26,5.26l-73.8 0c-2.9,0 -5.26,-2.36 -5.26,-5.26l0 -205.72c0,-66.34 54.11,-120.44 120.44,-120.44z"/>
   <path class="fil2" d="M1658.69 32.61c13.83,18.8 64.1,46.73 144.72,37.32 80.62,-9.41 188.01,-11.97 218.13,118.49 -20.55,-26.6 -92.35,-88.31 -195.52,-80.98 163.23,19.41 206.86,118.48 203.81,177.04 -27.37,-30.52 -71.96,-61.5 -192.2,-62.28 -128.59,-0.83 -176.58,-100.01 -178.94,-189.59z"/>
  </g>
 </g>
</svg>
