<?xml version="1.0" encoding="UTF-8"?>
<!DOCTYPE svg PUBLIC "-//W3C//DTD SVG 1.1//EN" "http://www.w3.org/Graphics/SVG/1.1/DTD/svg11.dtd">
<!-- Creator: CorelDRAW 2021 (64-Bit) -->
<svg xmlns="http://www.w3.org/2000/svg" xml:space="preserve" width="2.09754in" height="1.1111in" version="1.1" style="shape-rendering:geometricPrecision; text-rendering:geometricPrecision; image-rendering:optimizeQuality; fill-rule:evenodd; clip-rule:evenodd"
viewBox="0 0 2097.54 1111.1"
 xmlns:xlink="http://www.w3.org/1999/xlink"
 xmlns:xodm="http://www.corel.com/coreldraw/odm/2003">
 <defs>
  <style type="text/css">
   <![CDATA[
    .fil0 {fill:#ED3237}
   ]]>
  </style>
 </defs>
 <g id="Layer_x0020_1">
  <metadata id="CorelCorpID_0Corel-Layer"/>
  <g id="_2070477829024">
   <path class="fil0" d="M182.46 265.79c-23.31,-16.36 -69.79,0.86 -47.08,35.55 15.93,25.41 43.81,6.41 35.39,44.18 -2.58,11.54 -10.85,21.94 -26.06,27.52 -13.09,5.09 -27.21,9.25 -42.37,9.25 -21.73,0 -38.1,-3.03 -49.72,-8.59 -13.75,-6.58 -15.86,-11.35 -19.87,-30.51 9,-0.73 14.5,4.74 19.73,8.63 7.45,5.52 18.52,3.7 26.47,0.01 27.45,-12.83 19.85,-64.45 -15.88,-64.45 -15.86,0 -31.86,5.57 -41.8,19.7 -9.94,14.16 -11.96,32.01 -11.96,50.22 0,14.93 3.78,26.95 11.3,37.9 16.46,23.94 43.34,38.86 71.39,38.86 49.03,0 88.4,-28.58 102.89,-78.19 6.95,-23.81 9.9,-74.37 -12.42,-90.09zm629.61 63.02l0.18 0.21c61.37,73.23 132.09,73.83 209.05,26.02 4.79,6.74 12.42,11.1 21,11.1 8.43,0 15.93,-4.19 20.74,-10.71 76.7,47.42 147.21,46.63 208.42,-26.41l0.17 -0.21 -0.16 -0.15c-31.06,-30.22 -62.6,-45.2 -94.54,-47.26 15.62,-21.65 25.15,-49.74 27.66,-85.25l0.02 -0.26 -0.2 -0.02c-32.63,-3.24 -59.8,1.65 -82.25,13.57 -5.99,-14.31 -20.33,-24.01 -35.74,-26.42 -7.6,-23.08 -22.47,-45.55 -45.69,-67.33l-0.2 -0.18 -0.15 0.15c-23.05,21.94 -37.69,44.54 -44.99,67.73 -14.66,2.9 -28.06,12.33 -33.8,26.04 -22.46,-11.93 -49.65,-16.8 -82.28,-13.56l-0.2 0.02 0.02 0.26c2.51,35.51 12.04,63.6 27.66,85.25 -31.95,2.06 -63.49,17.04 -94.55,47.26l-0.16 0.15zm402.7 2.96l0 0 0.11 0.1 -0.13 0.14c-46.32,53.29 -100.2,49.2 -158.89,8.55l-0.15 -0.11 0.15 -0.14 0.27 -0.23c42.45,-4.17 77.3,-16.37 102.61,-38.67 18.91,3.28 37.59,13.06 56.01,30.35zm-90.89 -96.21l0 0c11.92,-3.59 25.28,-5.01 40.4,-3.8l0.14 0.01 -0.01 0.18c-1.8,20.31 -6.92,37.11 -15.02,50.8 -0.43,0.73 -0.86,1.45 -1.31,2.16l-0.13 0.19c-1.26,2 -2.59,3.92 -3.98,5.78l-0.02 0.02c-0.35,0.46 -0.7,0.93 -1.07,1.39l-0.54 0.69c-0.36,0.45 -0.73,0.91 -1.1,1.35l-0.04 0.05c-0.55,0.65 -1.1,1.29 -1.66,1.93l-0.04 0.05c-0.39,0.43 -0.77,0.85 -1.15,1.27l-0.6 0.64 -0.04 0.05 -1.16 1.2 -0.61 0.62 -0.02 0.02c-0.4,0.39 -0.79,0.78 -1.19,1.16l-0.03 0.04 -0.63 0.6 -0.93 0.87 -0.53 0.48 -1.11 0.99 -0.66 0.57 -0.06 0.05 -1.18 0.98 -0.1 0.08 -0.67 0.55 -0.02 0.01 -1.15 0.91 -0.46 0.35 -1.11 0.84 -0.04 0.03 -0.7 0.52 -0.15 0.1 -1.21 0.87 -0.07 0.05 -0.72 0.5 -0.03 0.02 -1.17 0.79 -0.76 0.5 -1.12 0.72 -1.02 0.64 -0.94 0.57 -1.18 0.69 -1.02 0.58 -1.22 0.68 -0.73 0.39 -1.45 0.77 -0.8 0.41 -1.36 0.68 -0.86 0.41 -1.39 0.65 -0.26 0.12c0.02,-0.01 0.05,-0.02 0.07,-0.03l-0.4 0.18 0.32 -0.15c-11.85,5.44 -25.34,9.15 -40.28,11.35l-0.24 0.04 -0.24 0.03 -0.24 0.04 -0.72 0.1 -0.24 0.03 -0.01 0 -1.2 0.16 -0.24 0.04 -0.24 0.03 -0.25 0.04 -0.24 0.03 -0.04 0.01 -0.2 0.02 -0.24 0.03 -0.25 0.03 -1.95 0.24 -0.25 0.03 -0.03 0 -0.22 0.02 -0.24 0.03 -1.73 0.19 -0.25 0.03 -0.25 0.02 -0.5 0.05 -0.25 0.02 -2 0.19 -0.25 0.03 -0.25 0.02 -0.26 0.02 -2.28 0.18 -0.25 0.02 -0.24 0.02 -0.17 0.01 0.05 -0.2c0.02,-0.1 0.05,-0.2 0.07,-0.3 34.02,-32.11 65.7,-64.22 72.05,-96.33zm-83.22 -86.23l0 0 0.12 -0.12 0.15 0.15c11.57,11.3 20.45,22.83 26.9,34.57 -10.33,2.72 -19.79,9.28 -25.97,20.86 -6.47,-12.14 -16.54,-18.82 -27.44,-21.27 6.29,-11.6 14.96,-23 26.24,-34.19zm-31.4 62.37l0 0c16.3,0 24.45,7.64 32.59,22.91 8.15,-15.27 16.3,-22.91 32.6,-22.91 18,0 32.61,13.69 32.61,30.54 0,30.54 -32.61,61.08 -65.2,91.61 -32.59,-30.54 -65.19,-61.07 -65.19,-91.61 0,-16.85 14.61,-30.54 32.6,-30.54zm-89.84 20.06l0 0c15.12,-1.21 28.51,0.19 40.43,3.78 6.33,32.1 37.97,64.19 71.98,96.28 0.03,0.12 0.08,0.26 0.11,0.37l0.05 0.2 -0.17 -0.01 -0.24 -0.02 -0.26 -0.02 -2.02 -0.16 -0.25 -0.02 -0.25 -0.02 -0.01 0 -0.25 -0.02 -0.25 -0.03 -1.75 -0.16 -0.25 -0.02 -0.25 -0.02 -0.5 -0.05 -0.25 -0.02 -0.25 -0.03 -1.73 -0.19 -0.24 -0.03 -0.04 -0 -0.42 -0.05 -0.04 -0 -0.24 -0.03 -0.24 -0.03 -1.47 -0.18 -0.24 -0.03 -0.72 -0.09 -0.24 -0.04 -0.48 -0.06 -0.24 -0.03 -0.24 -0.04 -0.48 -0.07 -0.24 -0.03 -0.24 -0.03 -0.72 -0.1 -0.24 -0.04 -0.24 -0.03 -0.24 -0.04c-14.69,-2.16 -27.99,-5.79 -39.69,-11.09l-0.15 -0.06 -0.15 -0.07 -0.3 -0.13 -0.15 -0.07 -0.14 -0.07 -1.32 -0.61 2.2 1.02 -5.35 -2.59 -0.14 -0.07 -0.85 -0.44 -1.39 -0.76 -1.09 -0.61 0.24 0.14 -0.35 -0.2 0.11 0.06 -0.71 -0.41 -1.47 -0.87 -0.57 -0.35c-0.5,-0.31 -1.01,-0.63 -1.51,-0.94l-0.51 -0.33 -1.43 -0.94 -0.51 -0.34 -1.48 -1.03 -0.44 -0.31c-0.5,-0.35 -0.99,-0.72 -1.48,-1.09l-0.49 -0.36 -1.28 -0.99 -0.7 -0.56 -1.27 -1.04 -0.45 -0.39c-0.46,-0.39 -0.91,-0.77 -1.36,-1.17l-0.45 -0.4 -1.19 -1.08 -0.52 -0.48c-0.4,-0.37 -0.78,-0.75 -1.18,-1.13l-0.65 -0.65 -0.95 -0.97 -0.69 -0.72 -0.87 -0.92 -0.78 -0.86 -0.8 -0.91 -0.83 -0.97 -0.63 -0.76 -0.77 -0.94 -0.76 -0.96 -0.86 -1.12 -0.13 -0.18 -0.45 -0.6 -0.78 -1.08 -0.11 -0.15 -0.43 -0.62 -0.03 -0.04 -0.83 -1.21 -0.42 -0.63c-0.28,-0.43 -0.56,-0.85 -0.83,-1.28l-0.41 -0.65c-0.4,-0.65 -0.8,-1.3 -1.19,-1.97 -8.09,-13.69 -13.23,-30.49 -15.01,-50.8l-0.02 -0.18 0.13 -0.01zm52.3 85.58l0 0 -0.14 -0.07 -0.43 -0.22 0.57 0.29zm-102.79 14.44l0 0c18.43,-17.29 37.11,-27.07 56.02,-30.35 25.3,22.29 60.16,34.49 102.61,38.67l0.27 0.23 0.17 0.14 -0.16 0.11c-58.69,40.65 -112.56,44.74 -158.89,-8.55l-0.12 -0.14 0.11 -0.1zm978.23 -20.26c-168.54,-187.14 -466.62,-311.52 -806.3,-311.52 -339.67,0 -637.76,124.38 -806.3,311.52 197.26,-151.59 485.35,-247.18 806.3,-247.18 320.95,0 609.04,95.59 806.3,247.18zm-704.01 397.1c-3.83,12.26 -6.63,20.94 -19.83,34.95 16.42,19.22 39.09,28.04 60.61,26.69 26.67,-1.67 51.58,-18.94 60.62,-51.42 -16.86,8.92 -39.93,14.66 -60.62,12.53 -16.61,-1.7 -31.69,-8.48 -40.79,-22.75zm788.29 -99.5c3.6,-16.56 18.72,-49.15 38.01,-49.15 12.93,0 29.94,14.13 52.64,14.13 35.13,0 60.3,-21.65 75.46,-77.73 -7.58,5.1 -16.2,7.65 -25.84,7.65 -13.1,0 -27.91,-4.37 -44.45,-13.11 -11.03,-5.83 -21.71,-13.11 -32.05,-21.85 -7.57,13.83 -22.4,31.14 -44.44,51.52 -6.9,6.56 -16.89,15.47 -29.98,26.4l0 153.67c8.39,-3.7 18.42,-9.1 26.02,-11.78 30.06,-10.62 108.13,-12.72 111.64,30.71 7.02,86.96 -142.04,90.46 -203.59,48.63l35.88 -81.77c-9.8,-27.66 -36.02,-61.06 -66,-73.59 -40.17,-16.8 -93.88,-24.35 -137.52,-6.22 -17.99,-13.87 -43.41,-23.77 -48.65,-39.55 3.41,-2.44 24.35,-11.08 35.78,-8.9 18.06,3.46 40.73,13.52 62.34,16.1 15.99,1.91 29.9,-1.01 44.3,-14.72 12.84,-12.21 23.7,-34.06 31.28,-63.2 -7.57,5.1 -16.53,7.65 -26.87,7.65 -13.09,0 -27.91,-4.37 -44.45,-13.11 -11.02,-5.83 -21.71,-13.11 -32.04,-21.85 -6.9,13.29 -27.91,34.22 -63.06,62.99 -11.03,8.74 -27.23,21.3 -48.58,37.51 28.76,13.29 35.66,30.26 51.92,57.54 -3.77,3.27 -7.87,6.09 -11.33,9.61 -36.47,37.32 -46.06,72.85 -46.79,125.48 -0.46,33.5 10.68,64.27 32.04,92.67 5.14,6.79 10.24,12.66 15.26,17.57 33.22,32.48 70.94,21.58 98.52,-13.38 17.23,-21.86 24.32,-45.52 24.32,-71.02 0,-23.3 -1.61,-45.96 -15.02,-61.72 -17.11,-20.13 -51.11,-27.35 -74.69,-5.57 -28,25.88 -23.55,67.12 17.3,67.59 4.78,0.05 10.36,-1.83 18.63,-6.93 11.55,-13.41 21.86,-12.5 23.94,-12.5 13.55,-0.02 30.77,22.41 10.41,36.22 -8.97,7.29 -27.86,17.22 -56.99,16.96 -29.95,-0.27 -62.17,-34.3 -62.17,-61.35 0,-25.5 8.41,-45.17 22.18,-59 16.54,-16.02 43.06,-28.84 78.89,-28.84 42.73,0 75.13,11.61 97.87,35.1 6.9,7.29 16.81,15.89 23.71,31.92l-43.41 108.02c8.96,10.93 22.46,20.94 46.59,30.22 24.11,9.1 45.47,13.66 64.09,13.66 97.73,0 170.56,-78.82 170.56,-180.99 0,-85.53 -73.64,-142.8 -151.64,-101.74zm-1884.52 -47.53c18.23,0 33.23,11.09 51.98,11.09 34.79,0 59.78,-21.65 74.76,-77.72 -7.58,5.1 -16.02,7.65 -25.49,7.65 -13.1,0 -27.74,-4.38 -44.11,-13.11 -10.85,-5.83 -21.54,-13.11 -31.69,-21.85 -9.66,17.47 -27.91,38.23 -54.79,62.27 -4.13,3.64 -9.99,8.37 -17.57,14.2l0 207.57c5.52,31.31 10.68,54.62 15.5,69.92 16.54,45.88 38.94,68.82 67.19,68.82 27.57,0 47.9,-19.66 61,-58.99 8.96,-26.95 13.43,-56.45 13.43,-88.49 0,-37.15 0.62,-64.1 -4.2,-80.85 -9.3,-27.03 -17.83,-36.65 -44.99,-38.04 -49.41,-2.54 -67.1,55.52 -41.98,92.75 6.8,10.09 16.26,15.29 34.19,15.29 -6.97,-34.03 40.77,-25.42 43.66,-12.93 7.56,32.61 -22.63,69.94 -53.85,69.94 -26.87,0 -48.16,-24.31 -57.81,-50.53 -6.2,-17.48 -9.3,-46.25 -9.3,-86.31 0,-21.84 0.44,-44.23 4.16,-60.55 3.74,-16.32 11.67,-28.67 19.94,-30.13zm492.66 354.83c-3.84,0 -8.44,0.22 -13.44,0.73 -26.18,2.66 -63.68,13.18 -63.68,41.01 0,27.81 36.85,37.05 63.68,25.93 7.31,-3.02 13.88,-7.57 18.76,-13.65 18.17,-22.67 34.92,-18.64 51.54,-12.28 -8.15,41.61 -36.62,63.85 -70.3,71.5 -39.48,8.97 -86.13,-2.13 -115.6,-25.65 -17.18,-13.69 -37.93,-37.12 -62.18,-64.41 6.2,-7.29 14.46,-16.39 24.81,-27.31 6.89,-8.74 10.33,-19.3 10.33,-31.68l0 -222.86c0,-35.04 -34,-65.04 -71.33,-65.04 -18.82,0 -44.96,3.42 -60.91,15.21 3.94,-18.09 17.75,-46.5 39.2,-46.5 14.46,0 27.28,11.28 48.59,11.28 34.45,0 59.94,-21.65 76.48,-77.72 -7.58,5.1 -16.54,7.65 -26.87,7.65 -13.11,0 -27.91,-4.38 -44.45,-13.11 -11.03,-5.83 -21.71,-13.11 -32.05,-21.85 -9.65,18.2 -27.91,38.95 -54.78,62.27 -4.14,3.64 -10.34,8.37 -18.61,14.2l0 155.36c25.49,-15.29 44.8,-22.94 57.88,-22.94 25.51,0 44.11,16.96 55.82,38.08l0 149.59c0,29.86 -11.71,54.26 -35.14,73.19 -12.41,10.2 -29.98,22.22 -52.72,36.05 0,15.3 19.99,40.06 59.94,74.3 48.93,42.24 98.89,63.35 149.89,63.35 18.64,0 35.87,-2.47 51.68,-7.41 21.59,-6.76 40.55,-18.11 56.86,-34.09 25.5,-24.76 38.25,-53.53 38.25,-86.31 0,-48.72 -40.95,-66.86 -81.67,-66.86zm372.42 -414.19c-13.1,0 -27.91,-4.37 -44.45,-13.11 -11.02,-5.83 -21.7,-13.11 -32.04,-21.85 -7.57,13.83 -22.39,31.13 -44.44,51.52 -6.89,6.56 -16.88,15.47 -29.98,26.4l0 1.53 -0.3 0.26 0 153.67c8.4,-3.7 18.43,-9.1 26.03,-11.78 30.06,-10.62 108.13,-12.72 111.64,30.71 0.43,5.31 0.27,10.31 -0.42,15.02 -12.41,70.26 -144.99,70.76 -202.5,32.07l35.2 -80.22 -0.22 -0.6 0.52 -1.19c-9.79,-27.67 -36.01,-61.06 -66,-73.6 -40.17,-16.8 -93.89,-24.35 -137.52,-6.22l-1.37 -1.04c-17.39,-12.96 -40.8,-22.57 -46.8,-37.22 5.07,-2.93 24.23,-10.46 34.98,-8.41 3.75,0.72 7.71,1.72 11.81,2.89 15.63,4.43 33.41,11.17 50.53,13.22 15.99,1.91 29.9,-1.01 44.29,-14.72 12.85,-12.21 23.72,-34.06 31.28,-63.2l-0.2 0.14 0.51 -1.93c-7.57,5.1 -16.53,7.65 -26.87,7.65 -13.09,0 -27.91,-4.37 -44.45,-13.11 -11.02,-5.83 -21.7,-13.11 -32.04,-21.85 -3.67,7.08 -11.35,16.33 -23.04,27.78 -10.25,10.04 -23.59,21.77 -40.02,35.22 -11.02,8.74 -27.22,21.3 -48.57,37.51l1.26 0.59 -1.57 1.2c28.39,13.12 35.48,29.83 51.32,56.53 -3.51,2.94 -7.24,5.6 -10.42,8.84 -25.95,26.54 -38.28,52.19 -43.51,83.72 -2.33,13.3 -3.37,27.65 -3.59,43.56 -0.46,33.5 10.68,64.27 32.03,92.67 5.14,6.79 10.25,12.66 15.26,17.57 15.45,15.11 31.87,20.83 47.8,19.11 18.31,-1.98 35.97,-13.78 50.72,-32.49 12.69,-16.1 19.87,-33.17 22.79,-51.23 1.25,-7.04 1.84,-14.23 1.84,-21.57 0,-23.3 -1.61,-45.96 -15.02,-61.71 -13.85,-16.31 -38.81,-24.15 -60.33,-14.94 -5.04,2.15 -9.89,5.24 -14.36,9.37 -9.98,9.22 -15.83,20.39 -17.39,30.97 -3.68,19.17 6.56,36.89 31.76,38.32 0.86,0.05 1.73,0.08 2.63,0.09 4.78,0.05 10.37,-1.83 18.63,-6.93 11.54,-13.41 21.86,-12.5 23.94,-12.5 9.55,-0.01 20.93,11.13 19.68,22.55 -0.95,4.18 -3.7,8.31 -8.96,11.89 -8.85,7.2 -27.4,16.98 -55.92,16.97l-1.07 -0c-29.94,-0.27 -62.17,-34.3 -62.17,-61.35 0,-5.83 0.44,-11.36 1.29,-16.59 3.04,-16.77 10.33,-30.31 20.59,-40.61 10.11,-9.79 23.94,-18.39 41.36,-23.59 11.07,-3.31 23.6,-5.25 37.54,-5.25 42.73,0 75.13,11.61 97.87,35.1 6.83,7.22 16.61,15.72 23.5,31.43l-42.9 106.73 0.28 0.33 -0.58 1.45c8.96,10.93 22.46,20.94 46.59,30.22 24.11,9.1 45.48,13.66 64.08,13.66 86.13,0 152.89,-61.21 167.54,-145.66 0.16,-0.9 0.31,-1.81 0.46,-2.71l0 -0.02c1.87,-11.09 2.85,-22.58 2.85,-34.38 0,-85.49 -73.56,-142.73 -151.5,-101.81 4.26,-17.01 18.98,-47.29 37.57,-47.29 12.93,0 29.95,14.13 52.64,14.13 35.14,0 60.3,-21.65 75.46,-77.73l-0.23 0.15 0.54 -1.94c-7.58,5.1 -16.2,7.65 -25.85,7.65zm335.2 94.92c-21.33,-2.15 -44.48,0.96 -63.26,7.95 -2.72,1.02 -5.35,2.11 -7.86,3.27 1.37,-6.31 4.09,-14.01 7.86,-21.34 6.94,-13.53 17.45,-25.81 29.65,-25.81 14.38,0 32.89,11.64 51.29,11.64 30.85,0 53.36,-19.13 68.58,-65.18 1.44,-4.36 2.82,-8.96 4.13,-13.81 -1.36,1.08 -2.74,2.07 -4.13,2.97 -7.1,4.58 -14.69,6.87 -22.74,6.87 -13.1,0 -27.57,-4.74 -43.42,-14.2 -8.28,-5.1 -18.6,-12.75 -31,-22.94 -7.58,14.75 -22.41,32.23 -44.45,52.98 -2.49,2.37 -5.03,5.01 -7.9,7.95 -5.1,5.21 -11.27,11.35 -20.09,18.44l0 139.93c5.57,-3.24 12.44,-5.85 20.09,-7.79 44.66,-11.33 116.02,0.68 112.15,49.2 -3.55,44.4 -57.42,72.35 -112.15,73.37 -42.68,0.79 -85.88,-14.79 -106.14,-51.73 15.16,-20.39 27.36,-38.56 33.56,-51.3 6.2,-12.75 9.3,-23.48 9.3,-32.23 0,-44.99 -26.03,-66 -57.34,-69.51 -26.96,-3.02 -57.21,3.85 -72.83,13.76 4.04,-18.44 16.29,-48.22 37.5,-48.22 15.38,0 27.37,11.29 48.93,11.29 34.97,0 59.62,-22.03 74.61,-76.65 -7.59,5.1 -16.02,7.65 -25.5,7.65 -13.09,0 -27.73,-4.74 -44.11,-14.03 -10.85,-6.19 -21.54,-13.83 -31.7,-23.12 -6.89,13.65 -21.36,30.78 -43.41,50.98 -6.9,6.56 -16.55,14.93 -28.94,25.12l0 143.21c20.96,-7.8 44.5,-14.33 68.88,-12.1 57.84,5.24 34.8,49.3 0.37,64.81 -3.22,1.44 -6.82,2.86 -10.8,4.2 -13.85,4.71 -32.33,8.79 -55.36,12.19 12.41,40.78 34.98,73.19 67.71,97.22 32.73,24.04 69.43,36.05 110.09,36.05 8.7,0 17.09,-0.62 25.17,-1.84 42.5,-6.45 76.49,-29.87 101.97,-70.26 28.03,-43.39 44.92,-105.07 30.69,-157.26 -10.64,-39 -35.24,-58.3 -69.39,-61.73zm282.87 -54.11c0,-6.48 -4,-17.85 -30.19,-33.87 -46.17,-28.4 -69.94,-42.96 -71.33,-43.7 -18.6,14.57 -37.91,30.59 -57.89,48.07 -18.72,16.57 -31.12,27.45 -37.21,32.65 -2.21,1.88 -3.59,3.02 -4.13,3.4l3.11 14.19 1.03 -0.56c45.88,-25.23 101.63,-14.67 139.93,17.45 29.95,25.11 40.96,61.41 40.96,89.09 0,22.57 -17.92,42.24 -53.75,58.99 -35.83,16.75 -53.74,31.32 -53.74,43.7 0,24.76 13.96,48.24 41.86,70.46 27.91,22.2 42.55,38.06 43.93,47.52 7.58,0 17.26,-5.13 28.94,-15.3 11.67,-10.15 8.49,-22.28 8.49,-36.05l0 -296.04zm-18.83 238.57l-0.24 -53.61c-8.18,1.2 -23.13,7.19 -24.76,19.08 -0.67,15.36 11.39,30.85 25,34.53z"/>
  </g>
 </g>
</svg>
